<svg width="60" height="60" viewBox="0 0 60 60" fill="none" xmlns="http://www.w3.org/2000/svg">
<path d="M41.2708 27.3396V46.6491C41.2708 47.8334 40.9024 48.1972 39.7057 48.1972H19.6623C18.4656 48.1972 18.0941 47.8334 18.0941 46.6491V27.3396H17.4593C15.8183 27.3396 14.1758 27.3396 12.5348 27.3396C11.5766 27.3396 11.1415 26.9138 11.1415 25.9695C11.1415 22.6287 11.1415 19.2879 11.1415 15.947C11.1415 15.0337 11.5797 14.5971 12.493 14.5955C16.1621 14.5955 19.831 14.5955 23.5001 14.5955C23.7598 14.5854 24.0174 14.6471 24.2443 14.7738C24.4713 14.9005 24.6589 15.0874 24.7865 15.3139C27.2124 19.0154 32.1524 19.0169 34.5721 15.3139C34.7074 15.0811 34.9047 14.8905 35.142 14.7634C35.3793 14.6363 35.6472 14.5776 35.9159 14.594C39.5462 14.6064 43.1765 14.594 46.8068 14.594C47.7992 14.594 48.2203 15.0135 48.2203 15.9997C48.2203 19.3023 48.2203 22.6049 48.2203 25.9076C48.2203 26.9355 47.81 27.338 46.7728 27.3396C44.9646 27.3411 43.1517 27.3396 41.2708 27.3396ZM38.9486 45.8534V45.1258C38.9486 38.9086 38.9486 32.6914 38.9486 26.4742C38.9486 25.4354 39.3542 25.0267 40.376 25.022C41.3219 25.022 42.2678 25.022 43.2137 25.022H45.8609V16.91C42.8282 16.91 39.8372 16.91 36.8463 16.91C36.6783 16.8976 36.5099 16.9291 36.3577 17.0012C36.2055 17.0734 36.0746 17.1839 35.9778 17.3218C35.2265 18.2767 34.2679 19.0484 33.1746 19.5786C32.0813 20.1088 30.8818 20.3836 29.6667 20.3823C28.4516 20.3809 27.2527 20.1035 26.1605 19.5709C25.0684 19.0383 24.1115 18.2644 23.3623 17.3078C23.2731 17.1758 23.1508 17.0696 23.0076 16.9997C22.8644 16.9299 22.7054 16.8989 22.5464 16.91C19.7072 16.9239 16.8695 16.91 14.0318 16.91H13.4885V25.022H14.0814C15.6656 25.022 17.2493 25.022 18.8325 25.022C20.0555 25.022 20.4116 25.3797 20.4116 26.6119V45.8534H38.9486Z" fill="#F01923"/>
<path d="M45.672 52.1666C47.5831 50.8129 49.285 49.186 50.7235 47.338C55.0397 41.7911 57.272 35.5151 56.998 28.4635C56.5073 15.8573 47.7651 5.32393 35.6728 2.82993C34.391 2.5652 33.0751 2.46148 31.7716 2.32834C30.8768 2.23546 30.3582 1.82056 30.3783 1.10998C30.4046 0.374631 30.9666 -0.0495499 31.9032 0.00463382C38.2752 0.380824 43.9459 2.56365 48.8147 6.70175C54.2083 11.2841 57.4841 17.1221 58.831 24.0498C60.9983 35.1854 56.2116 47.3721 47.0653 54.0258C46.943 54.1141 46.8269 54.2132 46.6783 54.3355C47.0251 55.0801 47.3703 55.8108 47.7047 56.5446C48.1939 57.6175 47.6862 58.4225 46.5173 58.4023C44.0264 58.3435 41.5371 58.2584 39.0462 58.1934C38.557 58.181 38.1808 57.9952 37.9625 57.5633C37.7225 57.0988 37.8077 56.6685 38.1173 56.2675C39.701 54.272 41.2739 52.2672 42.8715 50.281C43.4908 49.5147 44.4413 49.6509 44.8918 50.5411C45.1535 51.0411 45.3887 51.569 45.672 52.1666ZM43.5542 53.1279L41.3157 55.9563H44.8763C44.4398 55.0275 44.0202 54.1265 43.5542 53.1279Z" fill="#F01923"/>
<path d="M13.6758 7.83343C11.7655 9.18797 10.0637 10.8147 8.62435 12.662C4.30822 18.2104 2.07585 24.4849 2.34986 31.5365C2.84216 44.1443 11.5828 54.6761 23.6766 57.1716C24.9569 57.4348 26.2728 57.5385 27.5763 57.6732C28.4711 57.7645 28.9897 58.181 28.9696 58.89C28.9433 59.6254 28.3828 60.0511 27.4447 59.9954C21.0727 59.6207 15.4019 57.4379 10.5331 53.2998C5.14108 48.7159 1.86374 42.8795 0.516889 35.9502C-1.65046 24.8162 3.13629 12.6295 12.2825 5.97416C12.4048 5.88591 12.5194 5.78684 12.668 5.66454C12.3212 4.91835 11.976 4.18919 11.6416 3.45539C11.1524 2.381 11.6602 1.57598 12.829 1.59766C15.3199 1.65803 17.8093 1.74163 20.3002 1.80665C20.7894 1.81904 21.1656 2.00636 21.3838 2.43673C21.6238 2.90116 21.5386 3.33154 21.2213 3.7325C19.6376 5.72956 18.0647 7.73436 16.467 9.71903C15.8478 10.4853 14.8973 10.3491 14.4468 9.46049C14.1944 8.95891 13.9529 8.431 13.6758 7.83343ZM15.7936 6.87206L18.0322 4.04521H14.4716C14.9097 4.97408 15.3292 5.87353 15.7936 6.87206Z" fill="#F01923"/>
</svg>
