<svg width="61" height="60" viewBox="0 0 61 60" fill="none" xmlns="http://www.w3.org/2000/svg">
<path d="M60.0124 2.34401V4.22297C59.7556 4.92915 59.5787 5.67917 59.2295 6.33367C58.3464 7.95584 56.8699 8.90472 55.196 9.55296C54.7263 9.73303 54.6104 9.97416 54.6167 10.4423C54.6417 12.3213 54.6323 14.2003 54.6167 16.0683C54.6167 16.9373 54.1892 17.3679 53.328 17.3851C52.7017 17.3976 52.0754 17.3851 51.449 17.3851H49.7267V20.9144H50.3953C51.3723 20.9144 52.3494 20.9003 53.3249 20.9144C54.1563 20.9301 54.6057 21.3716 54.6104 22.1843C54.6229 23.8827 54.6229 25.5816 54.6104 27.281C54.6104 28.0373 54.1735 28.4647 53.4126 28.5164C53.1213 28.5368 52.827 28.5274 52.5341 28.5274H49.7454C49.723 28.6058 49.7068 28.6859 49.6969 28.7669C49.6969 35.2713 49.6969 41.7761 49.6969 48.2815C49.7116 48.4626 49.7958 48.6309 49.9318 48.7513C50.2368 48.9973 50.4799 49.3115 50.6414 49.6686C50.8029 50.0256 50.8784 50.4156 50.8619 50.8072C50.8509 52.8772 50.8619 54.9487 50.8619 57.0187V57.656H55.3463C56.4017 57.656 56.9638 58.0709 56.9544 58.8397C56.945 59.6085 56.3907 60 55.3213 60H4.69731C3.6169 60 3.06939 59.6164 3.05478 58.8491C3.03912 58.0662 3.6075 57.656 4.71139 57.656H9.14574V56.9811C9.14574 54.9096 9.14574 52.8396 9.14574 50.7696C9.14574 50.0243 9.36653 49.3682 9.94745 48.9C10.0769 48.8047 10.1796 48.6778 10.246 48.5314C10.3123 48.385 10.34 48.224 10.3264 48.0639C10.3191 41.7537 10.3191 35.4446 10.3264 29.1365C10.3264 28.9501 10.306 28.7638 10.2919 28.5336C9.09408 28.5336 7.94322 28.5446 6.79392 28.5336C5.81842 28.5227 5.40975 28.0999 5.40662 27.1244C5.40662 25.7387 5.40662 24.3514 5.40662 22.9641C5.40662 21.107 5.59608 20.9176 7.44216 20.9176H10.2951V17.3851C9.11913 17.3851 7.97139 17.3851 6.82366 17.3851C5.80589 17.3851 5.40505 16.9764 5.40348 15.9618C5.40348 14.0672 5.39096 12.1726 5.40348 10.2779C5.40348 9.90527 5.29074 9.73929 4.94626 9.59994C4.34651 9.36672 3.76725 9.08389 3.21449 8.7544C0.998884 7.39685 -0.156686 5.44273 0.0171185 2.80435C0.0954087 1.61747 0.358466 0.505755 1.64399 0.00469841H2.46447C3.33349 0.513584 4.15083 1.16339 5.08092 1.49847C6.6 2.05234 8.16015 2.48635 9.74702 2.79652C13.5895 3.53558 17.4899 3.8002 21.3966 3.89259C30.3013 4.1118 39.2092 4.28091 48.0747 3.1504C51.4256 2.72293 54.7576 2.14515 57.551 0H58.3714C58.7096 0.122069 59.0134 0.32384 59.2571 0.588225C59.5008 0.85261 59.6772 1.17182 59.7713 1.51883C59.8543 1.79285 59.9326 2.06843 60.0124 2.34401ZM41.4937 28.5743H18.5656C18.5482 28.6252 18.5356 28.6777 18.528 28.7309C18.528 35.2509 18.528 41.7714 18.528 48.2925C18.53 48.3747 18.5482 48.4558 18.5815 48.531C18.6148 48.6062 18.6626 48.6742 18.7222 48.7309C19.4503 49.2962 19.7055 50.0431 19.6977 50.9387C19.6805 52.9742 19.6977 55.0004 19.6977 57.0312V57.6372H40.3271V56.9811C40.3271 54.9111 40.3271 52.8411 40.3271 50.7727C40.3271 50.0274 40.5401 49.3635 41.1257 48.9047C41.453 48.6479 41.5078 48.3802 41.5078 48.0091C41.4994 41.7459 41.4994 35.479 41.5078 29.2085L41.4937 28.5743ZM2.394 2.82471C2.23742 4.39051 2.67115 5.568 3.92692 6.37595C4.87338 6.99023 5.8969 7.47672 6.97085 7.82275C10.757 9.02059 14.6934 9.34628 18.6298 9.60463C20.6356 9.73616 22.6477 9.77687 24.6566 9.87552C25.4238 9.9131 25.9092 10.4142 25.9092 11.0781C25.9102 11.2357 25.8781 11.3917 25.8148 11.5361C25.7516 11.6805 25.6587 11.8099 25.5422 11.9161C25.4258 12.0223 25.2882 12.1027 25.1386 12.1523C24.989 12.2019 24.8307 12.2195 24.6738 12.2039C20.7202 11.958 16.7634 11.7341 12.8176 11.399C11.1343 11.255 9.47299 10.8651 7.77723 10.5833V14.9988H52.2601V10.5613C52.1784 10.5525 52.096 10.5525 52.0143 10.5613C48.8326 11.3161 45.5945 11.6762 42.3408 11.8907C40.0234 12.0473 37.6997 12.1146 35.3776 12.2039C34.7357 12.2289 34.2957 11.8829 34.1516 11.3301C33.9512 10.5629 34.5274 9.9084 35.4591 9.86613C37.4492 9.77374 39.4409 9.72677 41.4279 9.6015C44.9165 9.38073 48.3942 9.04878 51.7982 8.19228C53.3139 7.81179 54.8155 7.3671 56.0901 6.40727C57.2676 5.52259 57.8125 4.35293 57.6449 2.94528C56.2889 3.45103 54.9737 4.04134 53.5989 4.43749C49.2146 5.67604 44.6848 6.01112 40.158 6.17553C31.745 6.47929 23.3257 6.57637 14.9267 5.83888C10.6254 5.46622 6.33669 4.96829 2.394 2.82471ZM7.75844 26.1348H52.2382V23.3054H7.75844V26.1348ZM16.1371 48.258V28.5634H12.6923V48.2612L16.1371 48.258ZM47.3106 48.258V28.5649H43.8659V48.2643L47.3106 48.258ZM17.3083 57.6341V50.6803H11.5148V57.6403L17.3083 57.6341ZM48.5006 50.6678H42.7072V57.6278H48.5006V50.6678ZM25.8779 17.4196H18.5594V20.8643H25.8779V17.4196ZM34.1391 20.8643H41.4686V17.4196H34.1391V20.8643ZM12.6876 17.4196V20.8643H16.1402V17.4196H12.6876ZM28.272 20.8643H31.7356V17.4196H28.272V20.8643ZM43.8737 17.4117V20.88H47.3185V17.4164L43.8737 17.4117Z" fill="#F01923"/>
<path d="M30.0367 9.95694C30.3406 9.96146 30.6305 10.0854 30.8438 10.3019C31.0571 10.5184 31.1766 10.8101 31.1766 11.1141C31.1766 11.4239 31.0535 11.721 30.8345 11.94C30.6154 12.1591 30.3183 12.2822 30.0085 12.2822C29.6987 12.2822 29.4016 12.1591 29.1826 11.94C28.9635 11.721 28.8404 11.4239 28.8404 11.1141C28.8403 10.9588 28.8715 10.805 28.9321 10.662C28.9927 10.519 29.0814 10.3897 29.1931 10.2817C29.3047 10.1737 29.4369 10.0893 29.5818 10.0335C29.7268 9.97773 29.8815 9.95168 30.0367 9.95694Z" fill="#F01923"/>
</svg>
