<svg width="60" height="60" viewBox="0 0 60 60" fill="none" xmlns="http://www.w3.org/2000/svg">
<path d="M0 47.2804L1.04015 46.3411L1.17227 46.4324V45.7418C1.17227 37.5815 1.17227 24.6181 1.17227 16.4578C1.17227 12.8245 3.5024 10.0439 7.07087 9.49141C7.91164 9.3629 8.78123 9.4722 9.67725 9.4722C10.4412 6.02504 12.2452 3.37542 15.2371 1.59059C17.1997 0.42672 19.3377 -0.0789423 21.6198 0.00993905C26.6644 0.209321 31.3343 3.83184 32.5113 9.42175H33.1287C35.2907 9.42175 37.4623 9.42175 39.6291 9.42175C40.6055 9.42175 41.0127 9.83733 41.0151 10.8162C41.0151 12.708 41.0151 14.5997 41.0151 16.5623C41.2445 16.5731 41.4499 16.5863 41.6541 16.5899C43.3356 16.6235 45.0172 16.5551 46.6831 16.71C50.2288 17.0391 53.3612 19.8761 54.1612 23.3521C54.656 25.4989 55.1396 27.6472 55.6121 29.7972C55.6328 29.9469 55.6934 30.0883 55.7877 30.2065C55.882 30.3246 56.0064 30.4152 56.1478 30.4686C57.8689 31.2637 58.7794 32.6306 58.8058 34.5283C58.837 36.8885 58.813 44.0554 58.813 46.4048C59.8616 46.8324 59.9865 47.0222 59.9865 48.1716C59.9865 49.7523 59.9865 51.3333 59.9865 52.9147C59.9865 54.0234 59.5829 54.4185 58.4563 54.4209C57.0342 54.4209 55.6121 54.4209 54.2032 54.4209C53.2711 58.3329 50.2227 59.9844 47.5371 59.9988C45.0424 60.0132 41.8151 58.5395 40.8193 54.4449H19.1395C18.7528 56.261 17.8339 57.7323 16.3109 58.7977C15.1699 59.6044 13.8009 60.0253 12.4037 59.9988C9.6172 59.9712 6.64808 58.1732 5.7977 54.4245C4.40923 54.4245 3.00635 54.3969 1.60587 54.4365C0.88521 54.457 0.359129 54.2311 0.0048044 53.609L0 47.2804ZM18.0597 27.3229C17.8315 27.0755 17.6994 26.9398 17.5793 26.7968C16.4286 25.4756 15.2167 24.1929 14.1441 22.8056C12.1239 20.1944 10.4856 17.367 9.79376 14.0868C9.63281 13.3325 9.56435 12.5602 9.44904 11.7711C9.03467 11.7711 8.64551 11.7711 8.25756 11.7711C5.39894 11.7831 3.51802 13.6532 3.51682 16.4986C3.51682 24.6793 3.51682 37.6644 3.51682 45.8439V46.4444H38.6418V11.7963H32.6963C32.5918 13.9763 32.0057 16.0002 31.0784 17.9351C29.4738 21.2862 27.1869 24.1376 24.6273 26.7908C24.4892 26.9338 24.3547 27.0803 24.1265 27.3229H24.9216C27.9676 27.3229 29.8125 27.3229 32.8585 27.3229C33.913 27.3229 34.2998 27.7181 34.2998 28.7763C34.2998 31.6277 34.2998 34.4783 34.2998 37.3281C34.2998 38.6109 33.9515 38.9592 32.6663 38.9592H9.76854C9.61239 38.9592 9.45625 38.9652 9.30011 38.9592C8.59867 38.9123 8.12904 38.4631 8.12543 37.7581C8.11262 34.6737 8.11262 31.5908 8.12543 28.5096C8.12543 27.7769 8.60587 27.3482 9.38058 27.3409C10.9036 27.3277 11.2255 27.3409 12.7437 27.3409L18.0597 27.3229ZM41.056 18.9561V46.442H56.4709V35.0004C56.4709 33.1543 55.7382 32.43 53.8681 32.4288H45.9613C44.6196 32.4288 44.2905 32.1045 44.2905 30.7833V18.9561H41.056ZM21.0817 26.9362C23.604 24.6072 25.8392 22.1414 27.6457 19.308C28.6354 17.755 29.4714 16.1275 29.941 14.339C30.9163 10.624 30.1392 7.33304 27.2661 4.73867C24.4928 2.23437 21.2246 1.67106 17.7294 2.99347C13.068 4.75668 10.7823 9.76406 12.3785 14.7378C13.9748 19.7116 17.3967 23.3773 21.0817 26.9362ZM10.482 31.9496H11.2183C16.0995 31.9496 18.5786 31.9496 23.4599 31.9496C23.7319 31.9409 24.0039 31.9696 24.2682 32.0348C24.8135 32.191 25.109 32.675 25.0585 33.2492C25.0379 33.5141 24.9234 33.763 24.7355 33.9511C24.5477 34.1391 24.2989 34.2539 24.034 34.2749C23.8198 34.2905 23.6049 34.2953 23.3902 34.2893H10.4916V36.5714H31.9264V29.7131H10.482V31.9496ZM42.1826 48.8586H17.8063C18.2951 49.9096 18.7828 50.9545 19.2884 52.0403H40.692L42.1826 48.8586ZM16.8802 53.2583C16.881 52.3863 16.6228 51.5338 16.1386 50.8087C15.6544 50.0836 14.9658 49.5185 14.1602 49.1851C13.3545 48.8516 12.468 48.7648 11.613 48.9356C10.758 49.1064 9.97287 49.5271 9.35716 50.1445C8.74146 50.7619 8.32285 51.5482 8.15438 52.4037C7.98591 53.2592 8.07515 54.1454 8.4108 54.9502C8.74645 55.7549 9.31341 56.4419 10.0398 56.9242C10.7663 57.4064 11.6195 57.6622 12.4914 57.6591C13.6548 57.6502 14.7678 57.1834 15.5893 56.3596C16.4108 55.5359 16.8746 54.4216 16.8802 53.2583ZM51.9139 53.227C51.9084 52.3577 51.6458 51.5094 51.1591 50.789C50.6725 50.0686 49.9835 49.5084 49.179 49.1789C48.3745 48.8494 47.4904 48.7653 46.6382 48.9373C45.786 49.1093 45.0038 49.5296 44.3901 50.1453C43.7763 50.7611 43.3586 51.5447 43.1894 52.3974C43.0201 53.2502 43.1071 54.1339 43.4392 54.9373C43.7714 55.7408 44.3338 56.4279 45.0558 56.9123C45.7777 57.3966 46.6269 57.6565 47.4963 57.6591C48.0774 57.6585 48.6528 57.5433 49.1894 57.3201C49.726 57.097 50.2134 56.7703 50.6237 56.3587C51.034 55.9471 51.3591 55.4586 51.5805 54.9213C51.8019 54.3839 51.9152 53.8082 51.9139 53.227ZM53.2243 30.053C53.2209 29.9468 53.2109 29.8409 53.1943 29.7359C52.7391 27.7025 52.3271 25.6582 51.813 23.6392C51.2185 21.309 48.9616 19.3584 46.6795 19.0906V30.053H53.2243ZM57.6227 48.8658H52.8387L54.3197 52.0343H57.6227V48.8658ZM2.37938 48.843V52.0536H5.65597L7.15735 48.843H2.37938Z" fill="#F01923"/>
<path d="M14.0228 11.4264C14.0207 10.066 14.4223 8.73553 15.1769 7.60356C15.9315 6.4716 17.005 5.58904 18.2616 5.06766C19.5181 4.54629 20.9011 4.40956 22.2354 4.67479C23.5697 4.94002 24.7953 5.59528 25.7569 6.55757C26.7185 7.51987 27.3729 8.7459 27.6372 10.0804C27.9015 11.4149 27.7638 12.7978 27.2416 14.054C26.7193 15.3102 25.836 16.3831 24.7035 17.1369C23.571 17.8906 22.2403 18.2914 20.8799 18.2883C19.0635 18.2785 17.3243 17.5522 16.0403 16.2674C14.7564 14.9825 14.0313 13.2428 14.0228 11.4264ZM16.3698 11.3327C16.3569 12.2271 16.6092 13.1052 17.095 13.8563C17.5807 14.6074 18.2781 15.1978 19.0991 15.5529C19.92 15.908 20.8278 16.0119 21.7078 15.8516C22.5877 15.6912 23.4005 15.2738 24.0434 14.6519C24.6864 14.0301 25.1307 13.2317 25.3203 12.3575C25.5099 11.4834 25.4363 10.5727 25.1088 9.74032C24.7813 8.90797 24.2145 8.19131 23.48 7.68078C22.7455 7.17026 21.8763 6.88876 20.982 6.87182C20.3856 6.8594 19.7926 6.9652 19.2373 7.18311C18.682 7.40102 18.1754 7.72673 17.7466 8.14145C17.3178 8.55616 16.9754 9.05167 16.7391 9.5994C16.5028 10.1471 16.3773 10.7362 16.3698 11.3327Z" fill="#F01923"/>
<path d="M28.0433 34.2893C27.8919 34.2897 27.7419 34.2597 27.6023 34.2013C27.4626 34.1428 27.336 34.057 27.2301 33.9488C27.1241 33.8407 27.0408 33.7125 26.9851 33.5717C26.9294 33.4309 26.9025 33.2804 26.9058 33.129C26.9085 32.8235 27.0298 32.531 27.244 32.3132C27.4582 32.0954 27.7487 31.9693 28.0541 31.9616C28.3691 31.9669 28.6694 32.0958 28.8902 32.3205C29.1111 32.5452 29.2348 32.8476 29.2347 33.1627C29.2238 33.4693 29.0927 33.7592 28.8698 33.97C28.6468 34.1808 28.35 34.2955 28.0433 34.2893Z" fill="#F01923"/>
</svg>
