<svg width="14" height="11" viewBox="0 0 14 11" fill="none" xmlns="http://www.w3.org/2000/svg">
<path d="M0.00127453 1.23477C0.0534791 0.95719 0.12128 0.687254 0.294128 0.45297C0.466976 0.218686 0.694576 0.070986 0.982975 0.028331C1.10475 0.0109394 1.22763 0.00242683 1.35064 0.0028638C5.11786 0.00159052 8.8854 0.000636642 12.6533 0C13.2078 0 13.6178 0.227917 13.8747 0.717495C14.0255 1.00398 14.0227 1.31498 13.9577 1.62376C13.8154 2.30114 13.4128 2.82128 12.8754 3.21695C11.9272 3.91726 10.9496 4.57745 9.98159 5.25102C9.29402 5.7285 8.60963 6.21267 7.90837 6.6701C7.68152 6.81221 7.43225 6.91488 7.17113 6.97377C6.77705 7.06927 6.42499 6.89451 6.10667 6.68506C5.5512 6.31994 5.00783 5.937 4.46222 5.55756C3.37102 4.79837 2.27504 4.04554 1.19402 3.2717C0.743489 2.94823 0.383813 2.51423 0.149613 2.01147C0.0792642 1.8625 0.0487031 1.69315 0 1.53399L0.00127453 1.23477Z" fill="#FFB200"/>
<path d="M0.00127453 3.55851C0.850555 4.3836 1.89687 4.93939 2.84165 5.63396C3.05047 5.78739 3.2682 5.92841 3.48943 6.07961C3.4646 6.10922 3.44678 6.13373 3.42577 6.15474C2.30104 7.27947 1.17683 8.4042 0.053161 9.52894C0.0372449 9.54485 0.0184639 9.55822 0.00127453 9.57255V3.55851Z" fill="#FFB200"/>
<path d="M0.443423 10.6914L4.40429 6.73058C4.5453 6.83085 4.69428 6.93303 4.83911 7.04031C5.26821 7.35863 5.71259 7.64511 6.2149 7.84056C6.79583 8.0653 7.35735 8.02582 7.92523 7.78517C8.4476 7.56426 8.89357 7.2278 9.35068 6.90534C9.43217 6.84772 9.5127 6.78915 9.58241 6.73949L13.5455 10.7013C13.3714 10.8659 13.1457 10.9598 12.891 10.9878C12.8139 10.9951 12.7364 10.998 12.659 10.9967C8.88688 10.9967 5.11499 10.9972 1.34332 10.9983C1.00685 10.9989 0.702854 10.9257 0.443423 10.6914Z" fill="#FFB200"/>
<path d="M10.5371 6.07961C11.6598 5.23001 12.92 4.54563 13.988 3.59162V9.52958L10.5371 6.07961Z" fill="#FFB200"/>
</svg>
