<svg width="14" height="16" viewBox="0 0 14 16" fill="none" xmlns="http://www.w3.org/2000/svg">
<path d="M6.23692 0H7.11178C7.32057 0.0292314 7.53354 0.0521995 7.74286 0.0887387C10.5945 0.555397 12.8427 2.79212 13.2582 5.63852C13.586 7.88307 12.9356 9.83375 11.3268 11.4389C9.83029 12.9328 8.30817 14.4022 6.79963 15.8826C6.75996 15.9217 6.7182 15.9582 6.67383 16C6.61745 15.9478 6.57204 15.904 6.52767 15.8601C5.56095 14.9122 4.59423 13.9639 3.6275 13.0153C2.98389 12.3795 2.30531 11.7708 1.70241 11.0975C-0.499858 8.63056 -0.57137 5.01005 1.52232 2.445C2.53968 1.19692 3.85457 0.422811 5.43985 0.120579C5.70188 0.0699464 5.97019 0.0396711 6.23692 0ZM6.67539 3.33707C5.7924 3.3361 4.94509 3.68551 4.31945 4.30861C3.69381 4.93171 3.34095 5.77759 3.33832 6.66058C3.33832 7.5456 3.6895 8.39446 4.31477 9.0208C4.94003 9.64714 5.78828 9.99978 6.6733 10.0013C7.55869 10.0003 8.40748 9.64794 9.03319 9.02154C9.65891 8.39513 10.0104 7.54596 10.0104 6.66058C10.0079 5.7779 9.65536 4.93227 9.03014 4.3092C8.40492 3.68613 7.55807 3.33652 6.67539 3.33707Z" fill="#FFB200"/>
</svg>
