<svg width="16" height="14" viewBox="0 0 16 14" fill="none" xmlns="http://www.w3.org/2000/svg">
<path d="M16 6.62368V7.0925C15.9901 7.10398 15.9821 7.11694 15.9762 7.1309C15.7416 8.21327 15.5077 9.29591 15.2744 10.3788C15.1492 10.9633 15.0319 11.5507 14.8883 12.1322C14.6152 13.2364 13.6146 13.9941 12.4331 13.9966C10.8083 14.0014 9.18339 14.0014 7.55831 13.9966C6.09466 13.9966 5.0013 12.9004 5.00047 11.4371C5.00047 9.72883 5.00047 8.02053 5.00047 6.31224C4.99107 5.65923 5.23443 5.02786 5.6797 4.5501C6.29839 3.86656 6.91513 3.18149 7.52993 2.49489C8.21235 1.73648 8.89422 0.977518 9.57553 0.217998C9.74586 0.0267966 9.93999 -0.0445909 10.1892 0.0276316C10.3838 0.0839902 10.5821 0.128242 10.7783 0.178339C11.8482 0.449695 12.2983 1.4821 11.766 2.44437C11.4462 3.02257 11.1239 3.59952 10.8058 4.17771C10.5595 4.62315 10.7808 4.99679 11.2913 4.99679C12.2515 4.99679 13.208 4.98844 14.1665 5.00013C14.8403 5.00848 15.3746 5.3053 15.7195 5.886C15.8514 6.11019 15.9086 6.37695 16 6.62368Z" fill="#FFB200"/>
<path d="M3.98977 13.9987H2.33993C1.90283 13.9987 1.46324 13.9987 1.02823 13.9987C0.433753 13.9954 0.00166988 13.5671 0.00125241 12.9738C-0.000417471 10.3237 -0.000417471 7.67363 0.00125241 5.02352C0.00125241 4.45075 0.424986 4.00572 0.982728 4.00197C1.96128 3.99529 2.94025 4.00197 3.9188 4.00197C3.93926 4.00197 3.96055 4.00531 3.98977 4.00781V13.9987Z" fill="#FFB200"/>
</svg>
