<svg width="16" height="16" viewBox="0 0 16 16" fill="none" xmlns="http://www.w3.org/2000/svg">
<path d="M11.0318 15.9975C10.7608 15.9525 10.4898 15.9166 10.2197 15.8611C9.50138 15.7127 8.82975 15.4325 8.17689 15.1106C5.58752 13.8309 3.5147 11.9616 1.89629 9.57949C1.19382 8.5454 0.632671 7.43792 0.260796 6.24372C0.044425 5.54821 -0.0831472 4.83811 0.061934 4.10507C0.123459 3.76469 0.284819 3.4503 0.525511 3.20191C0.948248 2.76993 1.37265 2.34004 1.80915 1.92223C2.35529 1.39935 2.96731 1.39852 3.51011 1.92682C4.14422 2.54477 4.7654 3.17773 5.38616 3.8061C5.6634 4.08673 5.84267 4.41363 5.78138 4.8281C5.73552 5.13708 5.55918 5.37308 5.34697 5.58616C4.99428 5.94058 4.63825 6.29209 4.28472 6.64526C4.10128 6.82873 4.09753 6.87668 4.20133 7.11185C4.60406 8.01418 5.22064 8.76556 5.88268 9.48316C6.54471 10.2008 7.26762 10.8379 8.09224 11.3562C8.37323 11.533 8.6759 11.6743 8.96773 11.8324C9.10323 11.9058 9.20495 11.8495 9.30125 11.7532C9.66437 11.3871 10.0263 11.0197 10.3944 10.6586C10.5038 10.5477 10.6257 10.4498 10.7575 10.3667C11.1769 10.1128 11.638 10.1528 12.0182 10.4635C12.0945 10.526 12.1691 10.5915 12.2392 10.6611C12.8295 11.2495 13.4231 11.8345 14.0051 12.4307C14.1529 12.5767 14.2749 12.7466 14.3662 12.9332C14.5492 13.3293 14.4783 13.7254 14.1936 14.0394C13.7321 14.5481 13.2439 15.033 12.7503 15.5113C12.4793 15.774 12.1308 15.9058 11.7576 15.9671C11.7122 15.9746 11.668 15.9887 11.623 16L11.0318 15.9975Z" fill="#FFB200"/>
<path d="M16 7.49547L14.7714 7.71688C14.4654 6.02773 13.7116 4.58376 12.4889 3.39497C11.2661 2.20619 9.80111 1.49067 8.08515 1.23131C8.14227 0.818927 8.19856 0.411133 8.25568 0C9.01837 0.10243 9.76458 0.303273 10.4757 0.597517C11.7902 1.13984 12.9589 1.98353 13.8876 3.06056C14.7953 4.09909 15.4528 5.33198 15.8095 6.66444C15.8787 6.91921 15.9345 7.17648 16 7.43292V7.49547Z" fill="#FFB200"/>
<path d="M8.09183 3.20608C10.256 3.45335 12.33 5.22422 12.7507 7.71562L11.5296 7.9262C11.3628 7.01178 10.9547 6.22996 10.2931 5.58907C9.63143 4.94819 8.84601 4.57 7.92132 4.42614C7.97927 4.01125 8.03555 3.60929 8.09183 3.20608Z" fill="#FFB200"/>
</svg>
