<svg width="61" height="60" viewBox="0 0 61 60" fill="none" xmlns="http://www.w3.org/2000/svg">
<path d="M60.8147 26.6038C59.4175 27.8497 58.0727 29.1659 56.6087 30.3211C55.1992 31.4041 54.1004 32.8397 53.4231 34.483C52.6732 36.288 51.7541 38.0203 50.9279 39.7955C50.8343 40.0148 50.8296 40.2618 50.9147 40.4845C52.3025 43.384 50.5571 46.424 47.3382 46.6839C47.2851 46.6935 47.2328 46.7075 47.182 46.7257C46.9197 49.2805 45.5129 50.7469 42.9152 51.0092C42.6469 53.7513 40.8884 55.1115 38.6507 55.2808C38.4659 59.1769 33.9558 60.9569 31.1303 58.1421C29.9381 59.5393 28.467 60.3274 26.5809 59.8696C24.6949 59.4118 23.6863 58.1326 23.3227 56.2143C22.9525 56.234 22.5814 56.2316 22.2115 56.2072C20.2051 55.9687 18.7458 54.4868 18.5157 52.4732C18.4836 52.1895 18.4836 51.9677 18.0806 51.9153C15.608 51.5874 14.1857 49.8993 14.2453 47.4124C14.2453 47.3337 14.2453 47.255 14.2453 47.1429C14.1166 47.1048 13.9914 47.0595 13.8614 47.0332C13.1683 46.8968 12.521 46.5874 11.9794 46.1338C11.4379 45.6801 11.0198 45.097 10.764 44.4386C10.5081 43.7801 10.4228 43.0677 10.516 42.3675C10.6092 41.6672 10.8779 41.0019 11.297 40.4333C11.5355 40.0983 11.545 39.9039 11.297 39.5737C9.70308 37.4528 8.14248 35.3069 6.53779 33.1991C6.18013 32.7341 5.70326 32.3645 5.25857 31.9711C3.73495 30.6478 2.19821 29.3399 0.669823 28.0214C-0.164711 27.3061 -0.212402 26.7612 0.487414 25.8921C4.10373 21.4111 7.72005 16.9308 11.3364 12.4513C11.9968 11.6335 12.469 11.562 13.3762 12.1366C15.2313 13.3109 17.072 14.5079 18.9426 15.6571C19.493 15.9973 20.0859 16.2634 20.7058 16.4488C22.5442 16.99 24.4016 17.48 26.2519 17.9628C26.5537 18.035 26.8687 18.0313 27.1687 17.9521C28.7889 17.5122 30.4103 17.0699 32.0114 16.5644C33.01 16.2518 34.053 16.1048 35.0991 16.1293C37.3154 16.1626 39.5329 16.1483 41.7504 16.1293C42.0602 16.1225 42.3627 16.0345 42.6278 15.8741C44.5902 14.6485 46.537 13.3967 48.4887 12.1545C49.4424 11.5453 49.9121 11.624 50.606 12.5241C53.8551 16.7365 57.1022 20.9537 60.3474 25.1756C60.5012 25.3747 60.6562 25.5714 60.8111 25.7717L60.8147 26.6038ZM29.6401 50.1103C29.6723 50.1341 29.7021 50.1711 29.7367 50.1771C32.307 50.611 33.9391 53.4544 32.8268 56.0188C32.8044 56.0875 32.7984 56.1604 32.8091 56.2318C32.8199 56.3032 32.8472 56.3711 32.8888 56.4301C33.411 56.9785 34.0417 57.2646 34.8118 57.0644C36.1864 56.7067 36.6383 55.077 35.6344 53.9992C34.7582 53.0586 33.8283 52.168 32.9294 51.2477C32.4525 50.7589 32.3547 50.2414 32.6194 49.7431C33.0056 49.0135 33.9308 48.9002 34.5769 49.5333C35.4818 50.4203 36.3653 51.3287 37.2522 52.2312C37.7649 52.7498 38.3741 52.9704 39.0882 52.7868C40.4878 52.4291 40.9218 50.7672 39.8727 49.6787C38.3491 48.0979 36.7873 46.5528 35.2434 44.9898C35.0419 44.7999 34.8516 44.5985 34.6735 44.3866C34.4855 44.1582 34.39 43.8676 34.4061 43.5722C34.4221 43.2768 34.5485 42.9982 34.7603 42.7916C34.972 42.585 35.2536 42.4654 35.5493 42.4565C35.845 42.4477 36.1332 42.5502 36.3569 42.7437C36.5073 42.8721 36.6502 43.009 36.7849 43.1539C38.3443 44.7299 39.9025 46.3064 41.4595 47.8833C41.9948 48.4281 42.6123 48.7178 43.3825 48.5044C44.8131 48.1062 45.1863 46.4527 44.0978 45.3451C41.6554 42.863 39.2066 40.3868 36.7515 37.9166C36.5989 37.7628 36.3676 37.6125 36.3331 37.4301C36.258 37.0296 36.1399 36.5253 36.314 36.2213C36.488 35.9173 36.9923 35.6657 37.3619 35.649C37.6898 35.6359 38.0975 35.9125 38.3574 36.1724C40.8384 38.645 43.2883 41.1474 45.7597 43.6295C46.6121 44.4855 47.7459 44.5141 48.5018 43.7488C49.2576 42.9834 49.1908 41.8889 48.3539 41.052C43.7799 36.4724 39.2019 31.8988 34.6199 27.3311C34.3927 27.1272 34.106 27.0018 33.802 26.9734C32.3833 26.8447 30.9586 26.7839 29.5411 26.6515C29.1203 26.6122 28.9105 26.7195 28.7066 27.0903C27.822 28.7021 26.9163 30.302 25.9896 31.89C25.0049 33.5698 23.1283 34.3567 21.3186 33.8905C18.5765 33.1847 17.3057 30.1947 18.7065 27.6709C20.0763 25.1994 21.4903 22.7507 22.8792 20.2912C22.9984 20.0885 23.0997 19.8811 23.2368 19.6307C22.2115 19.3458 21.2387 19.0918 20.2766 18.7962C19.8808 18.677 19.6447 18.7616 19.3789 19.0895C17.1137 21.884 14.8176 24.6618 12.5333 27.4455C11.2672 28.9882 10.0023 30.5321 8.71831 32.101L13.3154 38.2909C15.6473 36.35 19.4743 37.0987 20.3493 40.7707C21.6405 40.5823 22.8589 40.779 23.9056 41.6374C24.9524 42.4958 25.4126 43.6307 25.4638 44.9445C28.3704 45.1651 30.0371 47.3754 29.6401 50.1103ZM48.8678 38.4721C49.0776 38.0692 49.1623 37.9177 49.2374 37.7568C50.1589 35.8314 51.0662 33.8989 52.0104 31.9854C52.2011 31.5968 52.1296 31.3523 51.8804 31.04C48.6917 27.004 45.5125 22.9605 42.3429 18.9094C42.2497 18.7747 42.1229 18.6666 41.975 18.5959C41.8272 18.5252 41.6634 18.4944 41.5 18.5065C39.1454 18.5232 36.7897 18.5065 34.4339 18.522C34.0402 18.5231 33.6485 18.5769 33.2691 18.6817C30.7798 19.3887 28.3001 20.1291 25.8072 20.8277C25.6093 20.8751 25.4244 20.9661 25.266 21.0939C25.1076 21.2218 24.9797 21.3833 24.8916 21.5668C24.3098 22.6398 23.6887 23.7032 23.0854 24.7703C22.3165 26.1294 21.5356 27.4813 20.7845 28.8511C20.1991 29.9241 20.614 31.0877 21.6882 31.5061C22.568 31.8495 23.4764 31.4978 23.9951 30.581C25.0561 28.7283 26.108 26.8701 27.1508 25.0063C27.4775 24.4198 27.921 24.1539 28.5981 24.2064C30.5907 24.3574 32.5844 24.4941 34.5793 24.6165C35.1139 24.6486 35.6148 24.8882 35.9754 25.2841C40.1227 29.4512 44.2758 33.612 48.435 37.7663C48.5935 37.9297 48.6877 38.1681 48.8678 38.4721ZM12.7181 14.5377C9.4086 18.6364 6.13842 22.6887 2.85512 26.7564L7.0564 30.3652L17.5334 17.6088L12.7181 14.5377ZM57.9868 26.0137L49.1646 14.5544L44.3494 17.6219L53.7891 29.6272L57.9868 26.0137ZM18.6063 49.5619C18.7828 49.4939 19.2084 49.451 19.4564 49.2173C20.5651 48.1754 21.6655 47.1167 22.6836 45.9877C23.3107 45.2926 23.1462 44.1899 22.4738 43.5687C21.8014 42.9476 20.7607 42.8975 20.0895 43.5234C19.0356 44.5106 18.0146 45.5319 17.0267 46.5874C16.5105 47.1394 16.4711 47.8487 16.7883 48.5295C17.1054 49.2102 17.6729 49.5237 18.6063 49.5619ZM20.7523 51.9737C20.8965 52.8082 21.2447 53.3709 21.9445 53.6845C22.6598 54.0088 23.3572 53.9062 23.9247 53.3638C24.8976 52.4339 25.8537 51.4861 26.786 50.5121C27.5359 49.7228 27.5013 48.6117 26.7764 47.9C26.0516 47.1882 24.9608 47.2145 24.1703 47.9846C23.25 48.8823 22.3224 49.7729 21.4533 50.7267C21.1267 51.0641 20.974 51.5528 20.7487 51.9737H20.7523ZM30.7858 54.0147C30.7858 53.5987 30.4758 53.061 29.8463 52.72C29.1954 52.3719 28.5135 52.3802 27.9567 52.8488C27.2777 53.4195 26.648 54.0464 26.0743 54.7229C25.5878 55.2975 25.5902 56.0081 25.955 56.6685C26.3055 57.3099 26.8814 57.6223 27.6169 57.5973C28.74 57.5627 30.781 55.4442 30.7822 54.0147H30.7858ZM16.1409 39.5475C15.7832 39.6905 15.3588 39.7561 15.0811 39.9934C14.4214 40.5564 13.8049 41.1681 13.2367 41.8234C12.6645 42.4898 12.7598 43.5127 13.3631 44.1541C13.9663 44.7955 15.0012 44.9636 15.6783 44.4092C16.392 43.8202 17.046 43.1625 17.6311 42.4457C18.0854 41.8913 18.0758 41.1915 17.7229 40.5489C17.3903 39.9469 16.8562 39.6488 16.1409 39.5475Z" fill="#FFBF00"/>
<path d="M36.829 14.0692C36.4392 13.7605 35.9945 13.5661 35.8312 13.2347C35.6798 12.9223 35.7954 12.4562 35.8657 12.0711C35.8967 11.9054 36.1042 11.7647 36.2413 11.6252C38.7997 9.06441 41.359 6.50676 43.919 3.95229C44.1206 3.73717 44.364 3.56555 44.6343 3.44799C45.1255 3.25963 45.5785 3.41104 45.9076 3.81877C46.0686 3.99736 46.1661 4.22411 46.1851 4.46381C46.2041 4.70352 46.1434 4.94278 46.0125 5.14448C45.8942 5.32655 45.754 5.4935 45.5952 5.64163C43.0376 8.20325 40.4768 10.7605 37.9128 13.3134C37.635 13.5888 37.2618 13.7712 36.829 14.0692Z" fill="#FFBF00"/>
<path d="M25.1693 12.4775C25.1693 13.5504 24.262 14.1465 23.4895 13.7746C23.3295 13.6973 23.1837 13.5937 23.0579 13.4682C20.3986 10.8144 17.7419 8.15737 15.0881 5.49719C14.9744 5.38712 14.8758 5.26244 14.7949 5.12642C14.6701 4.9003 14.6231 4.63948 14.6609 4.38403C14.6988 4.12858 14.8195 3.89262 15.0044 3.7124C15.1894 3.53219 15.4284 3.41767 15.6847 3.38646C15.9411 3.35524 16.2006 3.40905 16.4234 3.53961C16.5886 3.64794 16.7407 3.77517 16.8764 3.91873C19.4516 6.48909 22.0231 9.06343 24.5911 11.6417C24.8677 11.9219 25.0477 12.2975 25.1693 12.4775Z" fill="#FFBF00"/>
<path d="M31.6012 9.36712C31.6012 10.4401 31.6084 11.5023 31.6012 12.5694C31.5941 13.3729 31.1005 13.901 30.3935 13.8891C29.7104 13.8784 29.23 13.361 29.2264 12.5908C29.218 10.4163 29.218 3.47293 29.2264 1.29837C29.2264 0.546095 29.7343 0.00722384 30.4019 7.06853e-05C31.0695 -0.00708247 31.5941 0.529404 31.5941 1.27691C31.6108 2.38326 31.6012 8.25958 31.6012 9.36712Z" fill="#FFBF00"/>
</svg>
