<svg width="65" height="67" viewBox="0 0 65 67" fill="none" xmlns="http://www.w3.org/2000/svg">
<path d="M28.1788 65.5578C27.5958 64.8415 27.0248 64.1166 26.4253 63.4115C23.0457 59.4298 19.6629 55.4513 16.277 51.4759C13.2474 47.917 10.2165 44.3618 7.18406 40.8103C6.47758 39.9804 5.77397 39.1476 5.07325 38.3119C4.62946 37.7834 4.63725 37.2859 5.1191 36.8006C7.03613 34.8732 8.95893 32.9504 10.8875 31.0322C11.3728 30.5469 11.8754 30.5426 12.4031 30.9907C15.8242 33.8997 19.2448 36.8098 22.6648 39.7211C23.6311 40.5438 24.6008 41.3613 25.6363 42.2377C25.6891 42.0119 25.7419 41.838 25.7782 41.6581C26.4703 38.1977 27.1623 34.7374 27.8544 31.277C27.8804 31.149 27.9072 31.0219 27.9297 30.8938C28.0162 30.4613 28.2221 30.1308 28.6633 30.0062C29.1045 29.8817 29.4202 30.0521 29.7178 30.3514C30.9488 31.5824 32.1807 32.8143 33.4126 34.0462L33.8495 34.4831C33.9083 34.2426 33.9533 34.0678 33.9948 33.8827C34.7826 30.172 35.5684 26.4634 36.3521 22.7568C36.3824 22.6141 36.411 22.4696 36.4438 22.3295C36.674 21.4263 37.5226 21.178 38.1948 21.8312C39.4466 23.0657 40.6819 24.3183 41.925 25.5614L42.3532 25.9896C42.4077 25.7621 42.4562 25.5995 42.4899 25.4343L44.8862 14.1622C44.9177 13.9861 44.9605 13.8121 45.0142 13.6414C45.062 13.4937 45.1448 13.3597 45.2554 13.2509C45.3661 13.142 45.5014 13.0614 45.6499 13.0161C45.7983 12.9707 45.9555 12.9619 46.1082 12.9903C46.2608 13.0188 46.4043 13.0837 46.5264 13.1795C46.6401 13.2721 46.7471 13.3727 46.8465 13.4805C52.4868 19.1209 58.1295 24.7595 63.7745 30.3964C64.2261 30.848 64.4242 31.3039 64.1759 31.9138L29.3553 66.7343L28.1788 65.5578ZM29.5249 32.9095C28.8069 36.4996 28.1113 39.9738 27.4262 43.4566C27.4236 43.5384 27.4382 43.6198 27.4692 43.6955C27.5002 43.7713 27.5469 43.8396 27.6061 43.896C27.9989 44.2611 28.4219 44.5942 28.8276 44.9445C31.7637 47.4469 34.6984 49.9491 37.6316 52.4509C38.2095 52.9422 38.7943 53.4232 39.3661 53.9016L61.9128 31.3549L46.5143 15.9564C46.4615 16.1822 46.4183 16.3517 46.3854 16.5196C45.5884 20.2752 44.7913 24.032 43.9943 27.7899C43.894 28.2657 43.7902 28.7294 43.2434 28.8868C42.6967 29.0443 42.3541 28.7519 42.0037 28.3963C40.8004 27.1774 39.5815 25.9741 38.3773 24.7699C38.2718 24.6643 38.1558 24.5692 37.9949 24.4256L37.0641 28.8012C36.5341 31.3001 36.005 33.7994 35.4767 36.2989C35.3763 36.7781 35.2561 37.2306 34.7093 37.3811C34.1626 37.5316 33.8261 37.2262 33.4783 36.8716C32.7387 36.1146 31.9817 35.375 31.2334 34.6267L29.5249 32.9095ZM14.6861 46.5994C18.7797 51.4116 22.8678 56.2149 26.9504 61.0092C27.054 60.8257 27.1736 60.6518 27.3077 60.4893C29.2593 58.5272 31.2161 56.5704 33.1781 54.6188C33.6055 54.1914 34.1938 54.1828 34.5822 54.5522C34.9706 54.9216 34.9654 55.5029 34.583 55.9631C34.4991 56.0626 34.3988 56.1474 34.3071 56.2391C32.5224 58.0238 30.7386 59.8076 28.9539 61.5922C28.6996 61.8466 28.3743 62.0317 28.0378 62.2834C28.4617 62.78 28.928 63.3259 29.3917 63.8709L37.9733 55.2892C32.1963 50.3773 26.4469 45.493 20.695 40.5923L14.6861 46.5994ZM17.7061 38.0602L12.1514 43.6149L13.3867 45.063L19.1594 39.2903C18.6637 38.8708 18.1931 38.4728 17.7061 38.0602ZM9.6037 40.626L10.8486 42.0802L16.1732 36.7556C15.674 36.3326 15.1991 35.9286 14.7138 35.516L9.6037 40.626ZM8.30781 39.0931L13.1843 34.2166L11.7379 32.983L7.0716 37.6493C7.48684 38.1337 7.88478 38.5991 8.30781 39.0931Z" fill="#FFBF00"/>
<path d="M21.3247 19.1814C20.9216 18.7783 20.5185 18.3752 20.1136 17.9703C19.5288 17.3751 19.5288 16.8665 20.1024 16.2825C20.6093 15.7756 21.1016 15.2539 21.6275 14.7678C21.8896 14.5247 21.9874 14.3058 21.8178 13.9684C21.6951 13.7563 21.6223 13.5191 21.605 13.2746C21.6085 12.4597 21.1509 12.1716 20.4207 12.0644C19.9728 11.9817 19.5315 11.8661 19.1006 11.7183C18.3791 11.5055 18.1136 11.0773 18.2995 10.355C18.5966 9.18825 18.9071 8.02528 19.2312 6.86607C19.4354 6.13248 19.8896 5.88247 20.6431 6.07192C21.2901 6.23283 21.9355 6.40411 22.5748 6.59184C22.8257 6.66969 22.9797 6.61433 23.1561 6.40671C23.4753 6.03386 23.8577 5.72415 24.1743 5.36082C24.2365 5.29032 24.2839 5.20804 24.3136 5.11887C24.3433 5.02971 24.3548 4.93546 24.3474 4.84176C24.2133 4.20593 24.0212 3.58307 23.8594 2.95242C23.6414 2.1081 23.8802 1.68075 24.7072 1.45409C25.8209 1.14785 26.9363 0.848534 28.0534 0.556135C28.851 0.348514 29.2861 0.608907 29.511 1.4117C29.6858 2.03803 29.8597 2.66521 30.0119 3.29672C30.0716 3.54846 30.172 3.67131 30.4445 3.72927C30.9211 3.82183 31.3805 4.00437 31.8572 4.09347C31.9581 4.10916 32.0612 4.10446 32.1603 4.07965C32.2594 4.05483 32.3525 4.01041 32.4342 3.949C32.9973 3.43255 33.5225 2.87283 34.0683 2.33735C34.6358 1.78023 35.1453 1.77937 35.7206 2.34946C36.5546 3.17302 37.3833 4.00177 38.2069 4.83571C38.7605 5.38937 38.7519 5.92572 38.1956 6.49408C37.6602 7.04168 37.1004 7.56506 36.5849 8.1291C36.4672 8.25886 36.4317 8.52098 36.4551 8.71043C36.4897 8.97861 36.6817 9.23467 36.6878 9.49852C36.7068 10.2702 37.0978 10.6006 37.8323 10.6932C38.3124 10.7564 38.7804 10.9233 39.245 11.0678C39.9068 11.2711 40.1724 11.708 40.0089 12.3801C39.7026 13.593 39.3785 14.8024 39.0365 16.0083C38.8592 16.6355 38.3963 16.8838 37.7519 16.7272C37.1074 16.5706 36.4828 16.427 35.8686 16.2176C35.4654 16.0792 35.2345 16.1926 35.0139 16.5152C34.8802 16.7398 34.7 16.933 34.4853 17.0819C33.9221 17.4097 33.8157 17.8154 34.0562 18.4124C34.2483 18.8916 34.3443 19.4115 34.4671 19.9167C34.6436 20.6417 34.3971 21.101 33.6903 21.3009C32.5195 21.6296 31.3419 21.9457 30.1573 22.249C29.4652 22.422 29.024 22.1539 28.8224 21.4644C28.639 20.8415 28.4565 20.2143 28.3216 19.5794C28.2454 19.216 28.0733 19.0629 27.7151 19.0318C27.4536 19.0244 27.1964 18.9629 26.9599 18.851C26.3319 18.4963 25.8984 18.6823 25.4737 19.2108C25.1181 19.6529 24.6804 20.0283 24.2704 20.4297C23.6778 21.0085 23.1596 21.0111 22.5757 20.4393C22.15 20.0136 21.7391 19.5958 21.3247 19.1814ZM30.4748 20.1287L32.3606 19.6269C32.1798 18.9427 32.0094 18.3155 31.8468 17.6874C31.6573 16.9564 31.8061 16.7021 32.3866 16.2272C32.9641 15.7592 33.493 15.2344 33.9654 14.6605C34.4818 14.0229 34.6955 13.8923 35.5009 14.1025C36.1229 14.266 36.7449 14.4295 37.3885 14.5973L37.8851 12.7166C37.2025 12.5341 36.5606 12.3645 35.9222 12.1881C35.2448 12.0003 35.096 11.7547 34.9628 11.0712C34.8099 10.2944 34.6018 9.52945 34.34 8.78223C34.1012 8.09882 34.1081 7.8168 34.6263 7.29515C35.1627 6.7588 35.6999 6.22158 36.2405 5.6809L34.8564 4.29677C34.3028 4.85042 33.7742 5.37899 33.2456 5.90756C32.7335 6.41969 32.429 6.4266 31.7516 6.19044C31.0054 5.92838 30.2416 5.7191 29.4661 5.56411C28.7835 5.43003 28.53 5.27864 28.3466 4.60733C28.1702 3.9689 28.0032 3.32787 27.8189 2.64013L25.9331 3.14187C26.1182 3.83567 26.2998 4.49314 26.4685 5.1532C26.6303 5.79077 26.4685 6.06673 25.9668 6.49581C25.3634 7.00752 24.8014 7.56608 24.2859 8.16629C23.8084 8.72686 23.5714 8.86701 22.8663 8.68621C22.2218 8.51925 21.5808 8.34537 20.9095 8.16716L20.4095 10.0513C21.0894 10.2364 21.7123 10.3991 22.336 10.5712C23.0739 10.7745 23.2046 11.0003 23.3413 11.7616C23.4733 12.4924 23.6699 13.21 23.9287 13.9061C24.2159 14.6761 24.2046 14.9555 23.6034 15.5584L22.0635 17.0983L23.4477 18.4824C24.0169 17.9132 24.5576 17.3725 25.0982 16.8319C25.5732 16.3569 25.8638 16.3535 26.5057 16.5715C27.2697 16.8342 28.0499 17.0469 28.8415 17.2082C29.5214 17.3448 29.7662 17.4945 29.9522 18.1736C30.1235 18.7982 30.287 19.4271 30.4748 20.1287Z" fill="#FFBF00"/>
<path d="M10.3157 20.5465C10.7482 20.114 11.1989 19.6823 11.6263 19.2359C12.7621 18.0326 12.8279 16.2851 11.7811 15.1778C11.3702 14.7392 10.82 14.6717 10.3831 15.0065C9.98435 15.3136 9.92379 15.8794 10.2378 16.363C10.7024 17.0749 10.6695 17.4262 10.0726 18.0265C9.29401 18.8051 3.11989 24.9792 1.87763 26.2215C1.85168 26.2474 1.82486 26.2743 1.79717 26.3019L1.74095 26.3582C1.67487 26.4257 1.61495 26.4989 1.56187 26.577C0.131021 28.4093 0.0678705 31.0556 1.56274 32.8411C2.08265 33.4614 2.68043 33.592 3.16834 33.1923C3.6277 32.816 3.60088 32.2408 3.08874 31.6023C3.04809 31.5513 3.00743 31.5002 2.96937 31.4483C2.55964 30.9032 2.35336 30.2319 2.38622 29.5507C2.41908 28.8696 2.689 28.2213 3.1493 27.7181L3.2237 27.6333C4.16319 26.7129 9.89956 20.9626 10.3157 20.5465Z" fill="#FFBF00"/>
<path d="M15.9033 16.5334C15.4906 16.1034 14.9197 16.0446 14.5036 16.3881C14.3119 16.5448 14.1898 16.7708 14.1639 17.0171C14.138 17.2633 14.2103 17.5098 14.3651 17.703C14.7856 18.2359 14.7622 18.7091 14.4006 19.2247C13.5571 20.0681 8.05174 25.5735 7.71263 25.9127L7.72214 25.9222C7.33026 26.3141 6.91762 26.6852 6.54823 27.0961C6.08525 27.6311 5.83246 28.3162 5.83691 29.0237C5.84137 29.7313 6.10277 30.4131 6.57245 30.9423C6.97125 31.393 7.51885 31.4734 7.96696 31.1481C8.39086 30.8402 8.45228 30.2649 8.11662 29.7545C7.64515 29.0391 7.67889 28.7129 8.29656 28.0935C8.91423 27.4741 15.2553 21.1452 15.8712 20.5188C15.9561 20.4328 16.0307 20.3373 16.0936 20.2342C16.8895 19.1581 16.8358 17.5023 15.9033 16.5334Z" fill="#FFBF00"/>
<path d="M41.6863 33.804C42.3653 33.1249 43.0453 32.4449 43.7244 31.7658C44.2902 31.2001 44.8066 31.2027 45.3767 31.7658C46.2793 32.6592 47.1772 33.5571 48.0706 34.4597C48.6277 35.0168 48.6268 35.5575 48.0697 36.1198C46.7167 37.4832 45.3583 38.8416 43.9943 40.1952C43.4355 40.7541 42.8974 40.7454 42.3359 40.1892C41.4328 39.2964 40.5348 38.3984 39.6421 37.4953C39.078 36.9312 39.0824 36.4165 39.649 35.843C40.3237 35.1595 41.0072 34.4831 41.6863 33.804ZM46.0982 35.3058L44.541 33.7486L41.6214 36.6683L43.1785 38.2254L46.0982 35.3058Z" fill="#FFBF00"/>
<path d="M34.6713 40.8189C35.3158 40.1744 35.9611 39.5291 36.6056 38.8846C37.1722 38.318 37.6896 38.3197 38.2579 38.8812C39.1611 39.7739 40.059 40.6719 40.9518 41.575C41.5098 42.133 41.5115 42.6728 40.9553 43.2343C39.6709 44.529 38.3814 45.8186 37.0866 47.1029C36.5278 47.6618 35.988 47.6548 35.4274 47.0995C34.5242 46.2067 33.6263 45.3087 32.7335 44.4056C32.1686 43.8407 32.1729 43.326 32.737 42.7533C33.378 42.1053 34.0268 41.4634 34.6713 40.8189ZM38.9881 42.4107L37.437 40.8596L34.7189 43.5777L36.27 45.1288L38.9881 42.4107Z" fill="#FFBF00"/>
<path d="M48.703 26.7872C49.3483 26.1419 49.9885 25.4931 50.6373 24.8529C51.2013 24.2889 51.7161 24.2932 52.2905 24.8607C53.1931 25.7541 54.091 26.652 54.9844 27.5546C55.5389 28.1091 55.5354 28.6489 54.9766 29.213C53.6916 30.5083 52.4021 31.7978 51.1079 33.0816C50.5499 33.6396 50.0144 33.6266 49.4495 33.0686C48.5475 32.1747 47.6493 31.2765 46.7548 30.3739C46.1942 29.8133 46.2055 29.2934 46.7704 28.7216C47.4097 28.0736 48.0585 27.4317 48.703 26.7872ZM51.4712 26.8357L48.7523 29.5547L50.2982 31.1006L53.0172 28.3816L51.4712 26.8357Z" fill="#FFBF00"/>
<path d="M26.3933 8.60922C27.1261 7.88683 28.1139 7.482 29.1429 7.48232C30.1719 7.48265 31.1594 7.8881 31.8918 8.61095C33.397 10.1162 33.3979 12.6777 31.8857 14.1535C31.1465 14.8677 30.1582 15.266 29.1303 15.2639C28.1024 15.2618 27.1158 14.8595 26.3794 14.1423C25.6481 13.4064 25.2388 12.4104 25.2414 11.3729C25.244 10.3354 25.6583 9.34143 26.3933 8.60922ZM27.7523 10.0184C27.5721 10.2009 27.4297 10.4173 27.3334 10.655C27.2371 10.8927 27.1888 11.1472 27.1912 11.4036C27.1936 11.6601 27.2467 11.9136 27.3475 12.1495C27.4482 12.3854 27.5946 12.599 27.7783 12.7781C28.1477 13.1293 28.6386 13.3242 29.1484 13.3219C29.6582 13.3197 30.1474 13.1205 30.5137 12.766C30.8763 12.3965 31.0795 11.8995 31.0795 11.3818C31.0795 10.8641 30.8763 10.3671 30.5137 9.99768C30.3316 9.81628 30.1154 9.67275 29.8776 9.5754C29.6397 9.47805 29.3849 9.42879 29.1279 9.43048C28.8709 9.43217 28.6168 9.48477 28.3803 9.58524C28.1437 9.68572 27.9294 9.83207 27.7497 10.0158L27.7523 10.0184Z" fill="#FFBF00"/>
</svg>
