<svg width="22" height="13" viewBox="0 0 22 13" fill="none" xmlns="http://www.w3.org/2000/svg">
<path d="M21.998 11.8686C21.8594 12.2855 21.6565 12.4552 21.2044 12.4713C20.217 12.503 19.2275 12.4909 18.2411 12.5492C17.3872 12.5994 16.7051 12.2714 16.1316 11.6898C15.6634 11.2177 15.234 10.7069 14.7754 10.2247C14.6075 10.0491 14.4208 9.89231 14.2189 9.75709C13.8764 9.52655 13.6283 9.56975 13.349 9.87412C13.0316 10.2202 12.9472 10.6551 12.893 11.0986C12.8663 11.3186 12.8683 11.5416 12.8533 11.7631C12.8247 12.1865 12.6152 12.4377 12.1938 12.4693C11.7307 12.5045 11.2641 12.4969 10.799 12.4934C10.4702 12.498 10.1415 12.4824 9.81459 12.4467C8.74275 12.3071 7.7995 11.8515 6.89291 11.2784C5.76834 10.5677 4.91249 9.6039 4.12695 8.55367C2.47551 6.3437 1.20126 3.92782 0.0942749 1.41449C-0.124712 0.918251 0.0375191 0.643013 0.583982 0.597307C0.925521 0.568678 1.27058 0.577216 1.61413 0.574704C2.30876 0.56918 3.00339 0.567673 3.69751 0.565161C4.16713 0.565161 4.48004 0.772094 4.68898 1.20605C5.24683 2.36494 5.82109 3.51579 6.41175 4.65861C6.65836 5.13526 6.97579 5.57323 7.40121 5.91427C7.49473 5.99181 7.59808 6.05666 7.70859 6.10714C7.98433 6.22818 8.24601 6.15737 8.33943 5.87509C8.46697 5.49074 8.55796 5.09521 8.61116 4.69377C8.7378 3.76281 8.70638 2.81716 8.51824 1.89666C8.40624 1.3502 8.07323 1.05688 7.54636 0.942362C7.46284 0.915313 7.38225 0.879976 7.30577 0.836885C7.35047 0.757527 7.38263 0.668124 7.44189 0.601826C7.65572 0.356233 7.95076 0.19578 8.27313 0.149788C9.51221 -0.0330357 10.7538 -0.0611635 11.9934 0.136226C12.6142 0.236679 12.8221 0.450645 12.8804 1.13021C12.9306 1.69777 12.8804 2.27436 12.8734 2.84644C12.8658 3.5913 12.8477 4.33565 12.8563 5.08001C12.8609 5.30164 12.9042 5.52075 12.9844 5.72743C13.1501 6.16138 13.5132 6.24878 13.8357 5.91728C14.1949 5.56009 14.5254 5.17517 14.8242 4.76609C15.6022 3.66111 16.2184 2.46975 16.7172 1.21509C16.9342 0.668628 17.0376 0.612373 17.6288 0.604839C18.784 0.595798 19.9342 0.578721 21.0869 0.56968C21.2369 0.567757 21.3867 0.582582 21.5334 0.613879C21.7494 0.66059 21.9352 0.761546 22 0.99761V1.29897C21.8614 1.62494 21.7459 1.96346 21.5796 2.27487C21.0271 3.31455 20.2818 4.22315 19.5811 5.16188C19.218 5.64807 18.8649 6.1428 18.5354 6.6521C18.341 6.95345 18.3651 7.28746 18.5766 7.57927C18.7276 7.77853 18.8935 7.96608 19.0728 8.1403C19.6805 8.75507 20.3179 9.34322 20.8985 9.98261C21.3837 10.5165 21.885 11.0615 22 11.8259L21.998 11.8686Z" fill="white"/>
</svg>
