<svg width="61" height="60" viewBox="0 0 61 60" fill="none" xmlns="http://www.w3.org/2000/svg">
<path d="M32.7832 13.9693L28.9 17.8572C28.7534 17.7022 28.6117 17.5507 28.4729 17.4023C28.1176 17.0225 27.7818 16.6635 27.4338 16.32C26.8347 15.7225 26.1063 15.6941 25.6207 16.2097C25.1351 16.7252 25.1745 17.3764 25.7657 17.977C26.4815 18.7039 27.2273 19.4464 27.9304 20.1433C28.6336 20.8402 29.25 20.8386 29.9611 20.1307C31.2938 18.8 32.6266 17.4678 33.9594 16.134C34.0096 16.0846 34.0602 16.0351 34.111 15.9855C34.3681 15.7343 34.6295 15.4789 34.8612 15.2038C35.0647 14.985 35.173 14.6944 35.1624 14.3958C35.1517 14.0973 35.023 13.8151 34.8044 13.6114C34.3598 13.1668 33.7229 13.1431 33.2073 13.5625C33.0587 13.6904 32.9172 13.8262 32.7832 13.9693Z" fill="url(#paint0_linear_54_139)"/>
<path fill-rule="evenodd" clip-rule="evenodd" d="M40.2642 16.9648C40.272 18.2915 40.0162 19.6065 39.5117 20.8335C39.0072 22.0605 38.2641 23.1751 37.3254 24.1126C36.3867 25.0501 35.2712 25.7919 34.0435 26.2949C32.8159 26.7978 31.5006 27.052 30.1739 27.0425C24.6132 27.0299 20.1735 22.5429 20.1766 16.9412C20.1682 15.615 20.4236 14.3004 20.9279 13.0738C21.4322 11.8472 22.1754 10.7332 23.1142 9.7964C24.053 8.85966 25.1686 8.11894 26.3963 7.61732C27.624 7.1157 28.9392 6.86321 30.2654 6.87452C31.5861 6.87489 32.8936 7.1368 34.1125 7.64515C35.3314 8.1535 36.4376 8.89821 37.3672 9.83632C38.2968 10.7744 39.0314 11.8873 39.5287 13.1108C40.0259 14.3343 40.2759 15.6442 40.2642 16.9648ZM37.9088 16.9648C37.9088 12.6355 34.5191 9.23944 30.207 9.25205C29.1964 9.24489 28.1944 9.43899 27.2595 9.82303C26.3247 10.2071 25.4756 10.7734 24.7618 11.4889C24.048 12.2044 23.4838 13.0549 23.1021 13.9907C22.7204 14.9265 22.5288 15.929 22.5384 16.9396C22.5268 17.9549 22.718 18.9623 23.1008 19.9027C23.4835 20.8432 24.0502 21.6978 24.7675 22.4164C25.4848 23.135 26.3383 23.7032 27.2781 24.0877C28.2178 24.4722 29.2248 24.6653 30.2401 24.6556C31.25 24.6614 32.2511 24.4666 33.185 24.0824C34.119 23.6982 34.9674 23.1323 35.6808 22.4175C36.3943 21.7028 36.9586 20.8534 37.3411 19.9187C37.7236 18.984 37.9165 17.9826 37.9088 16.9727V16.9648Z" fill="url(#paint1_linear_54_139)"/>
<path fill-rule="evenodd" clip-rule="evenodd" d="M25.0452 2.1904C24.5817 2.67127 24.1702 3.08119 23.5648 2.851C19.3725 2.80686 15.956 6.20603 16.1184 10.2154C16.15 10.8965 15.9718 11.2969 15.4878 11.7557C12.6168 14.4785 12.5064 19.1343 15.2702 21.9249C15.8756 22.5366 16.1326 23.0742 16.1326 23.9634C16.1594 28.1099 19.6595 31.2568 23.9021 31.0487C24.0625 31.0301 24.225 31.0535 24.3737 31.1165C24.5224 31.1795 24.6522 31.28 24.7504 31.4082C25.4265 32.1918 26.263 32.8212 27.2033 33.2538C28.1436 33.6863 29.1657 33.9121 30.2007 33.9156C31.2357 33.9192 32.2595 33.7006 33.2028 33.2746C34.146 32.8485 34.9868 32.2249 35.6684 31.446C35.7795 31.3052 35.9246 31.1951 36.0902 31.1261C36.2557 31.0571 36.4362 31.0316 36.6144 31.0519C40.6647 31.2332 43.8731 28.4631 44.3161 24.4301C44.4785 22.9654 44.5747 22.74 45.5207 21.5922C48.029 18.5493 47.6506 14.1001 44.674 11.4546C44.4974 11.2953 44.2972 11.0068 44.3208 10.8019C44.7891 6.51505 41.125 2.51203 36.5781 2.86677C36.4077 2.88866 36.2347 2.8647 36.0767 2.79735C35.9187 2.73 35.7816 2.62171 35.6794 2.48365C32.8589 -0.704259 27.9682 -0.846155 25.0452 2.1904ZM18.5921 11.2212C17.9252 8.07432 20.2129 5.20015 23.3818 5.18596C23.4826 5.19766 23.5835 5.2074 23.6843 5.21712C23.8958 5.23752 24.107 5.25789 24.3152 5.29633C25.3243 5.49498 25.5623 5.40038 26.1378 4.54901C26.513 3.98169 27.0025 3.49895 27.575 3.13165C28.1475 2.76436 28.7904 2.5206 29.4625 2.41598C30.1346 2.31136 30.8211 2.34818 31.4781 2.52408C32.1352 2.69998 32.7483 3.01109 33.2782 3.4375C33.6812 3.7815 34.0379 4.17632 34.3393 4.61208C34.8753 5.34835 35.1512 5.49025 36.0247 5.3184C38.9666 4.73821 41.598 6.62068 41.9354 9.59102C41.9759 10.1574 41.9382 10.7266 41.8235 11.2827C41.7147 11.9244 41.8944 12.3832 42.4305 12.749C45.6483 14.942 45.642 18.9955 42.4179 21.1712C41.8755 21.537 41.7037 22.01 41.8345 22.6406C42.5976 26.3063 39.6698 29.2924 36.0121 28.5908C35.1323 28.4236 34.858 28.5419 34.344 29.3097C32.3402 32.3053 28.1085 32.3053 26.1031 29.3097C25.6017 28.5608 25.3022 28.441 24.4272 28.5987C20.7663 29.2892 17.8542 26.3047 18.6157 22.6343C18.7482 21.999 18.5811 21.5055 18.0198 21.1728C14.8413 19.2888 14.8382 14.6299 18.0198 12.7379C18.6362 12.3706 18.7498 11.9749 18.5921 11.2212Z" fill="url(#paint2_linear_54_139)"/>
<path fill-rule="evenodd" clip-rule="evenodd" d="M60.3832 43.72L60.3833 43.7198C60.401 43.6729 60.4186 43.6262 60.4354 43.5796L60.4275 42.0455C60.3912 41.9786 60.3627 41.9077 60.3424 41.8343C59.841 38.7252 56.3614 36.54 52.8692 38.1166C50.7344 39.0791 48.5643 39.9582 46.3947 40.837L46.3939 40.8373C45.4506 41.2194 44.5074 41.6015 43.5672 41.9904C43.2204 42.137 42.8656 42.2789 42.4636 42.4365V41.8847C42.4447 39.1966 40.4188 36.9988 37.7574 36.9594C33.7071 36.8979 29.6552 36.9152 25.6049 36.9594C23.7429 36.9752 22.1285 37.7256 20.782 39.009C20.1071 39.653 19.4473 40.3121 18.7876 40.9713C18.4734 41.2853 18.1591 41.5992 17.8432 41.9115C17.7691 41.9884 17.685 42.0615 17.5965 42.1383C17.5326 42.1939 17.4664 42.2514 17.4002 42.3136C17.2362 40.9451 16.9619 40.7023 15.6313 40.7023C14.7858 40.7023 13.9403 40.7035 13.0946 40.7047H13.0943C11.4025 40.7072 9.71061 40.7096 8.01937 40.7023C7.66717 40.6993 7.31664 40.6532 6.97563 40.5651C5.91532 40.2908 4.85673 40.008 3.79813 39.7252L3.79781 39.7251C3.09198 39.5365 2.38616 39.348 1.67982 39.1619C0.916737 38.9601 0.358617 39.195 0.103205 39.8036C-0.204234 40.5178 0.19308 41.2052 1.05706 41.4385C2.25095 41.7611 3.44722 42.0781 4.63741 42.3934L4.64973 42.3967C5.13087 42.5242 5.61101 42.6514 6.0896 42.7787V57.6414H1.44648C0.555696 57.6461 -0.0103275 58.1286 0.00701519 58.8459C0.0243579 59.5633 0.54937 60 1.42597 60H15.9403C16.9272 60 17.3498 59.579 17.3592 58.6063V56.4621H18.1381C19.4028 56.4621 20.6676 56.4648 21.9325 56.4675H21.9337C25.2113 56.4744 28.4892 56.4814 31.7663 56.4416C33.258 56.4159 34.7452 56.2715 36.2139 56.0096C38.1969 55.6647 40.0221 54.8573 41.8463 54.0504C42.4486 53.784 43.0509 53.5175 43.6587 53.2679C43.728 53.2391 43.7934 53.2077 43.8549 53.174C46.9808 51.8665 56.2405 47.9715 57.3878 47.4533C58.8714 46.7833 59.8205 45.6292 60.2651 44.062C60.2984 43.9444 60.3411 43.8315 60.3832 43.72ZM41.901 51.4516C41.0846 51.7926 40.2685 52.1354 39.4586 52.4906C37.1457 53.5044 34.7429 54.1003 32.2062 54.1003H17.8101C17.7168 54.1003 17.6242 54.0942 17.5116 54.0867L17.5103 54.0867C17.4616 54.0835 17.4092 54.08 17.3513 54.0767V53.4113C17.3513 52.6316 17.3536 51.8517 17.3559 51.0718V51.0714C17.3604 49.5111 17.365 47.9505 17.3513 46.3907L17.3511 46.366C17.3463 45.7659 17.3421 45.2332 18.0482 44.9812C18.215 44.9209 18.3524 44.771 18.4872 44.624C18.5322 44.575 18.5768 44.5263 18.6221 44.4814C18.9256 44.1813 19.23 43.882 19.5345 43.5827L19.5353 43.5819L19.5373 43.58L19.5376 43.5797L19.5378 43.5795C20.3823 42.7495 21.2269 41.9194 22.0512 41.0696C22.5962 40.4869 23.2588 40.0267 23.9952 39.7196C24.7315 39.4124 25.5248 39.2653 26.3223 39.288C29.098 39.306 31.8728 39.304 34.6474 39.3019H34.6483C35.5312 39.3013 36.4142 39.3007 37.297 39.3007C37.6502 39.2911 38.0029 39.333 38.3439 39.4252C39.4886 39.7784 40.2469 40.9766 40.0782 42.1149C39.8859 43.4487 38.8784 44.3758 37.5556 44.3758H30.2386C30.1156 44.3758 29.9925 44.3749 29.8694 44.3741H29.8688C29.4613 44.3713 29.0528 44.3684 28.6462 44.3963C28.3786 44.4137 28.1265 44.528 27.9371 44.7178C27.7476 44.9075 27.6337 45.1598 27.6167 45.4274C27.5813 45.7031 27.649 45.9822 27.8067 46.2112C27.9643 46.4401 28.2009 46.6029 28.4712 46.6682C28.6426 46.7125 28.8191 46.7343 28.9962 46.7328C31.8667 46.7402 34.7377 46.7402 37.6092 46.7328C38.5194 46.7274 39.409 46.4615 40.1728 45.9666C40.3525 45.8452 40.5424 45.7397 40.7404 45.6512C45.1896 43.8208 49.6372 41.9919 54.099 40.1946C54.5897 39.9994 55.1206 39.9269 55.6457 39.9833C56.2652 40.0689 56.8383 40.3589 57.2742 40.8073C57.7101 41.2558 57.9837 41.8369 58.0516 42.4586C58.1998 43.6458 57.5234 44.8093 56.3299 45.3391C55.5812 45.6707 51.1043 47.5574 47.3412 49.1433L47.3396 49.1439L47.336 49.1454C44.7859 50.2201 42.5646 51.1563 42.0552 51.3759C42.0015 51.3997 41.95 51.425 41.901 51.4516ZM8.54281 57.5957V43.1003C8.60888 43.0962 8.67131 43.0911 8.73146 43.0862C8.83495 43.0777 8.93166 43.0698 9.02838 43.0688H14.958V57.5957H8.54281Z" fill="url(#paint3_linear_54_139)"/>
<defs>
<linearGradient id="paint0_linear_54_139" x1="30.2114" y1="0" x2="30.2115" y2="60" gradientUnits="userSpaceOnUse">
<stop stop-color="#F01923"/>
<stop offset="1" stop-color="#FFB200"/>
</linearGradient>
<linearGradient id="paint1_linear_54_139" x1="30.2114" y1="0" x2="30.2115" y2="60" gradientUnits="userSpaceOnUse">
<stop stop-color="#F01923"/>
<stop offset="1" stop-color="#FFB200"/>
</linearGradient>
<linearGradient id="paint2_linear_54_139" x1="30.2114" y1="0" x2="30.2115" y2="60" gradientUnits="userSpaceOnUse">
<stop stop-color="#F01923"/>
<stop offset="1" stop-color="#FFB200"/>
</linearGradient>
<linearGradient id="paint3_linear_54_139" x1="30.2114" y1="0" x2="30.2115" y2="60" gradientUnits="userSpaceOnUse">
<stop stop-color="#F01923"/>
<stop offset="1" stop-color="#FFB200"/>
</linearGradient>
</defs>
</svg>
