<svg width="54" height="60" viewBox="0 0 54 60" fill="none" xmlns="http://www.w3.org/2000/svg">
<path d="M30.8163 59.9912C30.5126 59.6052 30.1002 59.2574 29.9226 58.8289C29.1521 56.9357 28.3582 55.0425 27.7594 53.0935C27.4336 52.034 27.4174 50.8614 27.3749 49.7372C27.3147 48.1566 27.3587 46.5731 27.3587 44.9925V44.2895H26.3931C24.7714 44.2895 23.1512 44.2895 21.5295 44.2895C20.6592 44.2895 20.1455 43.8492 20.1441 43.1154C20.1426 42.3816 20.6578 41.9487 21.528 41.9414C23.2466 41.934 24.9651 41.9414 26.6836 41.9414H27.2736C27.3705 41.2237 27.3851 40.5486 27.5671 39.922C27.9825 38.4544 29.3356 37.4608 30.8736 37.3801C32.3632 37.3023 33.8088 38.1594 34.3503 39.5815C35.0107 41.3309 35.5669 43.1198 36.1657 44.8927C36.3653 45.4797 36.6559 45.9904 37.2473 46.2781C37.5308 46.4225 37.8455 46.4951 38.1636 46.4895C38.4817 46.4839 38.7936 46.4002 39.0718 46.2459C39.3501 46.0916 39.5861 45.8713 39.7593 45.6044C39.9325 45.3374 40.0375 45.0321 40.0651 44.7151C40.0871 44.4818 40.0783 44.2469 40.0783 44.0121C40.0783 32.0415 40.0749 20.0709 40.068 8.10033C40.068 6.04571 40.2485 4.08062 41.7557 2.36795C41.4622 2.35034 41.2788 2.33126 41.0997 2.33126C29.7729 2.33126 18.4461 2.33126 7.11926 2.33126C4.23692 2.33126 2.3496 4.21857 2.34814 7.10091C2.34814 21.3179 2.34814 35.5349 2.34814 49.7519C2.34814 50.9024 2.75173 51.309 3.89498 51.3104C8.73801 51.3104 18.3654 51.3104 23.2084 51.3104C24.2959 51.3104 24.833 51.6935 24.8403 52.4684C24.8477 53.2432 24.3003 53.6659 23.2304 53.6659C18.3668 53.6659 8.7204 53.6659 3.85829 53.6659C1.44998 53.6659 0 52.2101 0 49.793C0 35.5388 0 21.2832 0 7.02606C0 3.6242 2.05462 0.951727 5.28331 0.190051C5.85407 0.0627017 6.43764 0.00163909 7.02241 0.00807172C20.2228 -0.00269057 33.4243 -0.00269057 46.6267 0.00807172C50.7359 0.00807172 53.6637 2.95205 53.6711 7.06569C53.6769 10.1124 53.6769 13.1586 53.6711 16.2043C53.6711 18.5804 52.2108 20.0377 49.8363 20.0421C47.5909 20.0421 45.345 20.0421 43.0986 20.0421H42.4836C42.3134 20.7568 42.4837 21.2514 42.987 21.7533C44.3754 23.1211 45.7901 24.483 47.0185 25.9917C49.5134 29.053 50.6493 32.6325 50.6537 36.5715C50.6537 40.964 50.6772 45.3594 50.6229 49.7519C50.5833 53.0334 49.7863 56.1623 48.3921 59.1297C48.2307 59.4717 47.855 59.7168 47.5791 60H46.9921C46.0778 59.4849 45.9149 59.0006 46.3346 58.0305C46.3874 57.9058 46.4491 57.7825 46.5019 57.6577C47.6026 55.0836 48.263 52.4053 48.285 49.6007C48.3217 45.2478 48.332 40.895 48.2924 36.5392C48.276 35.3699 48.1427 34.2052 47.8946 33.0625C47.1447 29.5887 45.1209 26.8986 42.422 24.5299V42.0353C42.422 42.8748 42.447 43.7157 42.4147 44.5537C42.3472 46.2678 41.5899 47.5916 40.0401 48.3694C38.5843 49.1032 37.1343 49.0078 35.7563 48.1331C34.8625 47.5666 34.3063 46.736 33.9775 45.7409C33.4257 44.0777 32.872 42.4144 32.3162 40.7512C32.1196 40.1641 31.7292 39.7664 31.0937 39.7356C30.8376 39.7091 30.5798 39.7663 30.3589 39.8985C30.138 40.0308 29.9659 40.2311 29.8683 40.4694C29.7611 40.7604 29.7113 41.0694 29.7215 41.3793C29.7113 44.2293 29.7215 47.0794 29.7142 49.9294C29.7053 51.5163 30.0236 53.088 30.6491 54.5465C31.1495 55.7103 31.6279 56.8829 32.1064 58.0555C32.5173 59.0578 32.3485 59.5084 31.399 59.9985L30.8163 59.9912ZM42.4176 17.6866C45.0416 17.6866 47.5776 17.6998 50.1136 17.6778C50.8474 17.6778 51.3127 17.1876 51.3156 16.4362C51.3273 13.1752 51.3845 9.9128 51.2936 6.65476C51.2158 3.85461 48.7678 1.95849 46.0425 2.43546C43.9263 2.80235 42.4308 4.65591 42.4205 6.97323C42.4073 10.3898 42.4205 13.8063 42.4205 17.2228L42.4176 17.6866Z" fill="url(#paint0_linear_56_147)"/>
<path d="M11.2212 6.32455C12.0607 6.32455 12.9001 6.30988 13.7396 6.32455C15.0384 6.35097 16.0275 7.16842 16.0877 8.46136C16.1713 10.3105 16.1713 12.1685 16.0877 14.0191C16.029 15.312 15.0413 16.1427 13.7396 16.1574C12.0606 16.176 10.3817 16.176 8.7028 16.1574C7.30419 16.1427 6.32827 15.2064 6.30332 13.818C6.27201 12.101 6.27201 10.3839 6.30332 8.66682C6.32827 7.27702 7.30272 6.34657 8.69986 6.31868C9.54225 6.31135 10.3817 6.32455 11.2212 6.32455ZM13.7498 13.8092V8.70644H8.68814V13.8092H13.7498Z" fill="url(#paint1_linear_56_147)"/>
<path d="M6.29597 25.3063C6.29597 24.5065 6.28716 23.7052 6.29597 22.9053C6.31798 21.3335 7.25723 20.3943 8.82021 20.387C10.4199 20.3781 12.02 20.3781 13.6207 20.387C15.0985 20.3958 16.0759 21.2866 16.1156 22.7586C16.1655 24.4551 16.1655 26.156 16.1156 27.8526C16.0715 29.3201 15.0883 30.2154 13.6207 30.2256C12.0005 30.2354 10.3803 30.2354 8.76005 30.2256C7.26898 30.2154 6.32532 29.2702 6.29597 27.7674C6.28716 26.9456 6.29744 26.1267 6.29597 25.3063ZM8.68226 22.76V27.854H13.7557V22.76H8.68226Z" fill="url(#paint2_linear_56_147)"/>
<path d="M6.29598 39.3085C6.29598 38.5278 6.28717 37.747 6.29598 36.9604C6.31799 35.3886 7.25871 34.4493 8.82022 34.442C10.4199 34.4347 12.021 34.4317 13.6207 34.442C15.0985 34.4523 16.076 35.3416 16.1156 36.8151C16.1655 38.5116 16.1655 40.2091 16.1156 41.9076C16.073 43.3752 15.0883 44.2719 13.6207 44.2807C12.02 44.2905 10.4194 44.2905 8.81875 44.2807C7.25724 44.2807 6.31652 43.3341 6.29451 41.7623C6.28717 40.9478 6.29598 40.1289 6.29598 39.3085ZM13.7718 36.8239H8.68815V41.912H13.7718V36.8239Z" fill="url(#paint3_linear_56_147)"/>
<path d="M28.0661 27.8834H34.2711C34.4671 27.8756 34.6634 27.8834 34.8581 27.9069C35.1428 27.9381 35.4053 28.0753 35.5935 28.2912C35.7816 28.5071 35.8817 28.7858 35.8737 29.0721C35.8728 29.3483 35.7718 29.6147 35.5893 29.822C35.4069 30.0293 35.1554 30.1633 34.8816 30.1992C34.7271 30.2213 34.5709 30.2301 34.4149 30.2256C30.1413 30.2256 25.8672 30.2256 21.5926 30.2256C20.7722 30.2256 20.2791 29.8984 20.1632 29.2996C20.0062 28.4851 20.5609 27.8892 21.5119 27.8848C23.6942 27.879 25.8794 27.8848 28.0661 27.8834Z" fill="url(#paint4_linear_56_147)"/>
<path d="M30.7591 13.8239C32.0271 13.8239 33.2951 13.8136 34.5631 13.8239C35.3776 13.8327 35.884 14.3038 35.8707 15.0068C35.8736 15.1595 35.8453 15.3111 35.7876 15.4525C35.7299 15.5939 35.6439 15.722 35.535 15.829C35.426 15.936 35.2965 16.0197 35.1541 16.0749C35.0117 16.1301 34.8595 16.1557 34.7069 16.15C32.0345 16.172 24.0758 16.172 21.4033 16.15C20.6695 16.15 20.2014 15.632 20.2102 14.976C20.219 14.32 20.6959 13.8386 21.4341 13.8268C22.7799 13.8078 29.4119 13.8239 30.7591 13.8239Z" fill="url(#paint5_linear_56_147)"/>
<defs>
<linearGradient id="paint0_linear_56_147" x1="26.8322" y1="0" x2="26.8322" y2="60" gradientUnits="userSpaceOnUse">
<stop stop-color="#F01923"/>
<stop offset="1" stop-color="#FFB200"/>
</linearGradient>
<linearGradient id="paint1_linear_56_147" x1="26.8322" y1="0" x2="26.8322" y2="60" gradientUnits="userSpaceOnUse">
<stop stop-color="#F01923"/>
<stop offset="1" stop-color="#FFB200"/>
</linearGradient>
<linearGradient id="paint2_linear_56_147" x1="26.8322" y1="0" x2="26.8322" y2="60" gradientUnits="userSpaceOnUse">
<stop stop-color="#F01923"/>
<stop offset="1" stop-color="#FFB200"/>
</linearGradient>
<linearGradient id="paint3_linear_56_147" x1="26.8322" y1="0" x2="26.8322" y2="60" gradientUnits="userSpaceOnUse">
<stop stop-color="#F01923"/>
<stop offset="1" stop-color="#FFB200"/>
</linearGradient>
<linearGradient id="paint4_linear_56_147" x1="26.8322" y1="0" x2="26.8322" y2="60" gradientUnits="userSpaceOnUse">
<stop stop-color="#F01923"/>
<stop offset="1" stop-color="#FFB200"/>
</linearGradient>
<linearGradient id="paint5_linear_56_147" x1="26.8322" y1="0" x2="26.8322" y2="60" gradientUnits="userSpaceOnUse">
<stop stop-color="#F01923"/>
<stop offset="1" stop-color="#FFB200"/>
</linearGradient>
</defs>
</svg>
