<svg width="60" height="60" viewBox="0 0 60 60" fill="none" xmlns="http://www.w3.org/2000/svg">
<path d="M29.0666 59.9953C27.8049 59.6165 26.9956 58.6632 26.1628 57.7334C24.7086 56.1086 24.8792 56.1336 22.9304 57.1589C22.2349 57.5463 21.5068 57.8721 20.7546 58.1325C19.5492 58.5145 18.4692 58.1325 17.8242 57.0368C17.3546 56.2416 17.0228 55.3556 16.6862 54.49C16.1055 52.9998 16.0883 52.9794 14.5213 53.2268C13.7387 53.352 12.9419 53.5101 12.1499 53.5398C10.5329 53.5852 9.48097 52.6585 9.31034 51.0556C9.21486 50.1477 9.22421 49.2289 9.19604 48.3131C9.16317 47.2659 9.10995 47.1845 8.07056 46.9591C7.38651 46.812 6.69307 46.7008 6.00745 46.5584C5.72182 46.4997 5.44125 46.4186 5.16841 46.3158C3.73142 45.771 3.06461 44.6221 3.39803 43.124C3.59526 42.2349 3.9177 41.374 4.1885 40.5005C4.5454 39.3547 4.51253 39.2482 3.48409 38.6221C2.87204 38.2417 2.23182 37.8973 1.64168 37.4919C-0.196035 36.2396 -0.484031 34.7385 0.76981 32.9007C1.26446 32.1791 1.83268 31.506 2.33516 30.7922C2.80476 30.1379 2.79379 29.8702 2.32575 29.2081C1.93285 28.6508 1.49924 28.1233 1.09694 27.5723C0.84998 27.247 0.62514 26.9055 0.423875 26.5501C-0.318098 25.1679 -0.0911449 23.8703 1.14548 22.9076C1.90937 22.3127 2.77032 21.8416 3.589 21.3156C4.48438 20.7427 4.52821 20.6159 4.21514 19.5937C3.9459 18.7203 3.62029 17.8609 3.41366 16.9734C3.03641 15.3548 3.70169 14.1557 5.29208 13.6548C6.23128 13.3574 7.22685 13.2244 8.19423 13.0083C9.07865 12.8111 9.15693 12.7047 9.18824 11.7874C9.21955 10.8701 9.20702 9.90895 9.30094 8.98696C9.46843 7.34335 10.5125 6.40101 12.1593 6.46362C13.147 6.50119 14.1284 6.70469 15.1115 6.83774C15.9662 6.95358 16.1086 6.88628 16.4405 6.08012C16.7535 5.30841 17.0181 4.51477 17.3593 3.74619C18.2344 1.7942 19.6526 1.25886 21.5858 2.14798C22.3105 2.47983 22.9946 2.89307 23.7084 3.25467C24.6476 3.72427 24.8401 3.6961 25.5758 2.90873C25.9625 2.49548 26.3319 2.06814 26.7138 1.65646C26.9111 1.442 27.1099 1.22599 27.3259 1.03032C28.8615 -0.355013 30.3188 -0.350319 31.8168 1.08667C32.4899 1.73316 33.1067 2.43912 33.7297 3.13727C34.1461 3.60687 34.6016 3.66948 35.1385 3.38303C35.7381 3.06057 36.3344 2.72715 36.948 2.43443C37.4154 2.19745 37.9025 2.00157 38.4038 1.84899C39.5528 1.52653 40.6266 1.88812 41.248 2.91186C41.6888 3.68849 42.0602 4.5025 42.3579 5.34441C43.0075 7.03968 43.0028 7.0522 44.756 6.7313C45.2726 6.63738 45.7923 6.56068 46.3135 6.49181C48.4424 6.20848 49.7353 7.27448 49.8574 9.41587C49.9028 10.2126 49.8653 11.0141 49.9013 11.8108C49.942 12.7344 50.0249 12.8205 50.9188 13.0162C51.8126 13.2118 52.6845 13.3292 53.5454 13.5703C55.3722 14.0728 56.1016 15.3297 55.6477 17.1706C55.4661 17.9047 55.1984 18.6185 54.9621 19.3402C54.5269 20.6691 54.5441 20.7239 55.7181 21.4487C56.3317 21.8275 56.9704 22.175 57.5543 22.5882C59.2855 23.803 59.5642 25.2493 58.3964 27.0103C57.9018 27.7555 57.3179 28.4411 56.7966 29.169C56.2754 29.8968 56.2848 30.1238 56.7966 30.847C57.393 31.6892 58.0693 32.4812 58.603 33.3594C59.4702 34.7839 59.2073 36.0737 57.9205 37.1444C57.6332 37.3768 57.3309 37.5901 57.0158 37.7831C56.5055 38.1055 55.9795 38.4092 55.4677 38.7223C54.6161 39.2592 54.5801 39.3828 54.8588 40.3408C55.1718 41.3834 55.5412 42.4165 55.7275 43.4809C55.9498 44.7582 55.3565 45.7601 54.1371 46.2109C53.2699 46.5318 52.3338 46.6695 51.4291 46.8871C51.4103 46.8871 51.3899 46.8871 51.3712 46.8949C49.989 47.1376 49.9076 47.2456 49.8778 48.67C49.8606 49.5247 49.8778 50.3919 49.7526 51.2325C49.5303 52.7399 48.5347 53.5899 47.0085 53.5398C46.002 53.5085 45.0002 53.305 43.9984 53.1688C43.139 53.0514 42.9824 53.1187 42.6553 53.9077C42.3939 54.5338 42.1763 55.1834 41.929 55.8174C40.9616 58.2859 39.4432 58.8667 37.0937 57.6629C36.4362 57.3248 35.785 56.9758 35.1323 56.6251C34.5938 56.3371 34.1336 56.406 33.7235 56.8771C33.3806 57.2747 33.0034 57.6442 32.6622 58.0449C31.9468 58.8808 31.1547 59.6102 30.1028 60L29.0666 59.9953ZM5.20911 30.0111C4.88195 30.7468 4.64871 31.4497 4.2699 32.0664C3.8363 32.7786 3.26964 33.4079 2.77656 34.0841C2.16607 34.92 2.20208 35.086 3.05989 35.6417C3.9177 36.1974 4.82717 36.7139 5.64585 37.3369C6.59914 38.0633 6.92945 39.0933 6.64299 40.2563C6.40975 41.1955 6.07944 42.1159 5.79611 43.0457C5.51278 43.9756 5.59419 44.1039 6.54905 44.3059C7.48043 44.5015 8.42748 44.6487 9.34321 44.9022C10.5454 45.2325 11.2889 46.0543 11.4173 47.3066C11.5206 48.3304 11.4971 49.3666 11.5535 50.3966C11.5957 51.1965 11.7382 51.3076 12.5287 51.1996C13.3959 51.0807 14.2584 50.9147 15.1287 50.8161C16.6518 50.6424 17.6865 51.2059 18.3862 52.5599C18.5631 52.9043 18.6993 53.269 18.8558 53.6306C19.1 54.2442 19.3348 54.8625 19.5743 55.4793C19.7418 55.9144 20.0345 56.0319 20.4509 55.8158C21.16 55.4495 21.8597 55.077 22.5751 54.7201C24.5819 53.6964 25.8341 53.9202 27.3666 55.5763C27.8565 56.1054 28.3246 56.6564 28.8286 57.1714C29.4548 57.8085 29.6817 57.8085 30.3141 57.1589C30.898 56.5578 31.4333 55.9066 32.0219 55.3149C33.3587 53.9625 34.5265 53.759 36.2483 54.5792C37.0044 54.9392 37.7276 55.3619 38.4774 55.736C39.163 56.0772 39.329 56.0146 39.6248 55.304C39.9927 54.4258 40.2838 53.5116 40.6908 52.6523C41.3858 51.1902 42.4502 50.6345 44.0641 50.8302C44.9517 50.9367 45.8329 51.1057 46.7252 51.2137C47.3873 51.2951 47.5219 51.1668 47.547 50.4968C47.5767 49.6593 47.5376 48.8172 47.6065 47.9844C47.7787 45.9307 48.5551 45.0885 50.5807 44.6768C51.3054 44.5297 52.038 44.4154 52.758 44.2542C53.5266 44.0804 53.5955 43.9615 53.3654 43.2038C53.1228 42.404 52.8113 41.6244 52.5827 40.8183C52.0818 39.0056 52.506 37.902 54.0698 36.8595C54.5551 36.5355 55.0622 36.2443 55.5632 35.9453C57.033 35.0656 57.0487 34.9952 56.0187 33.6631C55.7197 33.278 55.4144 32.8992 55.1233 32.5078C53.7286 30.6294 53.7332 29.3552 55.1405 27.4784C55.4536 27.0573 55.7886 26.6503 56.1079 26.2261C57.0189 25.0302 57.0033 24.9457 55.74 24.1646C55.1139 23.7748 54.4596 23.4179 53.8616 22.9905C52.5154 22.0372 52.1272 20.9791 52.5436 19.3902C52.7549 18.5825 53.0507 17.7967 53.2981 16.9984C53.6111 15.995 53.5501 15.9027 52.5029 15.6882C51.6075 15.5051 50.7012 15.3611 49.8199 15.1216C48.4878 14.7568 47.7615 13.8301 47.6582 12.4605C47.583 11.4712 47.5736 10.4772 47.5517 9.48631C47.5392 8.94313 47.306 8.70364 46.7503 8.78973C46.1366 8.89148 45.5183 8.97131 44.9047 9.08089C42.3595 9.53797 41.2027 8.88522 40.3026 6.47772C40.0647 5.84062 39.8173 5.20666 39.5747 4.56956C39.3884 4.08274 39.0675 3.9716 38.6089 4.21422C37.9029 4.58834 37.2001 4.96559 36.4878 5.32406C34.5406 6.3024 33.3321 6.09264 31.8341 4.51008C31.3128 3.95908 30.8228 3.3752 30.2906 2.83359C29.6786 2.20745 29.4516 2.20746 28.8474 2.82264C28.3167 3.36581 27.8252 3.94812 27.304 4.50069C25.8169 6.07855 24.5834 6.30083 22.6518 5.33188C21.9724 4.99064 21.3181 4.60557 20.6372 4.27058C19.9562 3.9356 19.7809 4.0076 19.4882 4.7167C19.1391 5.56199 18.8621 6.43858 18.477 7.26508C17.7741 8.79755 16.7081 9.3783 15.0458 9.1795C14.2146 9.08089 13.3912 8.92748 12.5615 8.81164C11.7319 8.69581 11.5973 8.81164 11.5597 9.64441C11.5284 10.3645 11.5472 11.0861 11.53 11.8077C11.4815 13.899 10.6424 14.904 8.59184 15.3282C7.86708 15.4769 7.13451 15.5865 6.41132 15.7446C5.60986 15.9199 5.53628 16.0576 5.77108 16.8246C5.96831 17.4758 6.19686 18.1176 6.40662 18.7657C7.12355 20.9822 6.68369 22.1672 4.68474 23.3897C4.12122 23.7372 3.54516 24.0644 2.98789 24.4213C2.21774 24.9159 2.18332 25.1006 2.72963 25.8551C3.2321 26.5501 3.81598 27.1919 4.2574 27.9214C4.64404 28.546 4.88039 29.2676 5.20911 30.0111Z" fill="url(#paint0_linear_58_180)"/>
<path d="M47.5329 41.0953C47.9439 40.4302 48.3161 39.7419 48.6474 39.0338C48.6944 38.9336 48.7398 38.835 48.7852 38.7348C48.8118 38.6769 48.84 38.6205 48.865 38.5626C48.8901 38.5047 48.9136 38.4483 48.937 38.3904C48.9449 38.3732 48.9527 38.356 48.9589 38.3387C49.0106 38.2198 49.0607 38.0992 49.1155 37.9787C49.1781 37.8222 49.2376 37.6656 49.2971 37.5185C49.2971 37.4982 49.3111 37.4778 49.319 37.4575C49.3722 37.3134 49.4254 37.1679 49.4755 37.0223C49.4912 36.9769 49.5053 36.9315 49.5209 36.8877C49.56 36.7718 49.5992 36.6576 49.6367 36.5417C49.6571 36.476 49.679 36.4118 49.6993 36.3461L49.7745 36.0972L49.859 35.8123C49.8599 35.8019 49.8599 35.7914 49.859 35.781C50.8448 32.3308 50.9359 28.6865 50.1236 25.1914C49.7103 23.3647 49.0443 21.6044 48.145 19.9616C45.7123 15.46 41.7271 11.9954 36.9308 10.2126L36.6178 10.0984C36.5567 10.0733 36.4941 10.0498 36.4268 10.0279L36.2139 9.95747C34.0696 9.22647 31.8188 8.8562 29.5534 8.86173C27.2879 8.85654 25.0372 9.22681 22.8928 9.95747L22.6799 10.0279C22.6142 10.0498 22.55 10.0733 22.4905 10.0984L22.1775 10.2126C17.3809 11.9949 13.3955 15.4596 10.9633 19.9616C10.0642 21.604 9.39831 23.3637 8.98473 25.1898C8.17241 28.6854 8.2629 32.3301 9.2477 35.781L9.2571 35.8123C9.28371 35.9078 9.31346 36.0033 9.34164 36.0972L9.41677 36.3461C9.43712 36.4118 9.45745 36.476 9.47937 36.5417C9.51694 36.6576 9.5545 36.7718 9.5952 36.8877C9.60929 36.9315 9.62495 36.9769 9.6406 37.0223C9.69226 37.1679 9.74392 37.3134 9.79714 37.4575L9.81907 37.5185C9.87699 37.675 9.93803 37.8316 9.99907 37.9787C10.0476 38.0977 10.0993 38.2182 10.1556 38.3372C10.1634 38.3544 10.1697 38.3732 10.1775 38.3904L10.2511 38.5626C10.2761 38.6205 10.3043 38.6769 10.3309 38.7348C10.3763 38.835 10.4217 38.9351 10.4687 39.0338C10.7998 39.7417 11.1714 40.4301 11.5816 41.0953C11.6834 41.2597 11.7867 41.4256 11.8947 41.5868C11.9197 41.6265 11.9448 41.6641 11.9699 41.6995C14.4631 45.4713 18.1141 48.3312 22.3731 49.8487C22.4502 49.8856 22.5291 49.9186 22.6095 49.9473C24.3418 50.5516 26.1458 50.9263 27.9755 51.0619C28.5015 51.1323 29.029 51.2028 29.5518 51.2857L29.5612 51.2278L29.5706 51.2857C30.095 51.2028 30.6209 51.1292 31.1484 51.0619C32.9776 50.9265 34.7811 50.5518 36.5129 49.9473C36.5939 49.9188 36.6734 49.8859 36.7508 49.8487C41.0093 48.3316 44.6597 45.4723 47.1526 41.7011C47.1776 41.6635 47.2042 41.626 47.2277 41.5868C47.3279 41.4256 47.4312 41.2612 47.5329 41.0953ZM35.9869 47.6698C35.9096 47.6854 35.8332 47.7058 35.7584 47.7308C33.7579 48.4051 31.6657 48.7683 29.5549 48.8078C27.4447 48.7681 25.3531 48.4049 23.353 47.7308C23.2777 47.7058 23.2008 47.6854 23.1229 47.6698C21.7698 47.1517 20.4779 46.486 19.2706 45.6849C18.0636 44.8989 16.9447 43.9852 15.9333 42.9596C15.9035 42.9174 15.8723 42.8736 15.8378 42.8329C15.7126 42.6763 15.578 42.5417 15.4496 42.3946C14.0447 40.7845 12.9088 38.9582 12.0857 36.9863C11.423 35.2379 11.0114 33.4044 10.8631 31.5404C10.8224 31.0635 10.799 30.5913 10.7927 30.1238C10.8945 26.2934 11.9057 22.8418 13.6917 19.96C14.2956 19.0274 14.9707 18.143 15.711 17.3146C15.758 17.2629 15.7987 17.2128 15.8378 17.1581C16.7081 16.23 17.6746 15.3973 18.7212 14.6739C20.1133 13.6985 21.6227 12.9023 23.2137 12.3039C23.2826 12.2867 23.3546 12.2664 23.4282 12.2429C25.3991 11.5899 27.4571 11.2374 29.533 11.1972H29.5909C31.6668 11.2376 33.7248 11.5901 35.6958 12.2429C35.7693 12.2664 35.8398 12.2867 35.9102 12.3039C37.5013 12.9023 39.0106 13.6985 40.4028 14.6739C41.4493 15.3973 42.4159 16.23 43.2861 17.1581C43.3253 17.2082 43.366 17.2582 43.4114 17.3146C44.1522 18.143 44.8278 19.0274 45.4322 19.96C47.2183 22.8418 48.2295 26.2934 48.3312 30.1238C48.3229 30.5903 48.2989 31.0625 48.2592 31.5404C48.1113 33.4048 47.7003 35.2388 47.0382 36.9879C46.2147 38.9595 45.0783 40.7852 43.6728 42.3946C43.546 42.5417 43.4114 42.6826 43.2861 42.8329C43.2521 42.8734 43.2202 42.9157 43.1907 42.9596C42.1789 43.9848 41.06 44.8985 39.8533 45.6849C38.6414 46.4866 37.3447 47.1522 35.9869 47.6698Z" fill="url(#paint1_linear_58_180)"/>
<path d="M37.5257 19.8285C37.4471 20.0536 37.3469 20.2707 37.2267 20.4766C32.7623 27.2597 28.2922 34.0398 23.8164 40.8167C23.3468 41.5352 22.6783 41.7073 22.082 41.2972C21.4856 40.8871 21.4104 40.2422 21.8675 39.5472C26.3454 32.7504 30.8265 25.9548 35.3107 19.1601C35.6864 18.5903 36.1716 18.3774 36.6882 18.534C37.2048 18.6905 37.5351 19.1272 37.5257 19.8285Z" fill="url(#paint2_linear_58_180)"/>
<path d="M27.5873 23.4241C27.5372 26.1604 25.3441 28.2532 22.5781 28.1984C21.3085 28.1592 20.1045 27.6252 19.2232 26.7103C18.342 25.7954 17.8534 24.5723 17.8618 23.302C17.8705 22.6575 18.0068 22.0211 18.2627 21.4295C18.5187 20.8379 18.8893 20.3029 19.3531 19.8552C19.8169 19.4076 20.3647 19.0562 20.965 18.8214C21.5652 18.5866 22.2061 18.4729 22.8506 18.487C24.1321 18.5174 25.3496 19.0537 26.2371 19.9787C27.1246 20.9038 27.6099 22.1424 27.5873 23.4241ZM25.2392 23.3709C25.2434 23.0401 25.1822 22.7118 25.0592 22.4047C24.9361 22.0976 24.7537 21.8178 24.5224 21.5813C24.291 21.3449 24.0152 21.1564 23.7109 21.0267C23.4065 20.8971 23.0796 20.8287 22.7488 20.8257C22.0796 20.8239 21.4367 21.0858 20.9592 21.5545C20.4817 22.0232 20.208 22.6612 20.1973 23.3302C20.1948 23.6613 20.2577 23.9896 20.3823 24.2963C20.5069 24.6031 20.6908 24.8822 20.9234 25.1178C21.1561 25.3533 21.4329 25.5407 21.7381 25.6691C22.0432 25.7975 22.3707 25.8644 22.7018 25.8661C23.0338 25.8734 23.364 25.8142 23.6728 25.692C23.9816 25.5698 24.2629 25.3871 24.5001 25.1546C24.7372 24.9222 24.9255 24.6446 25.0538 24.3382C25.1821 24.0319 25.2478 23.703 25.2471 23.3709H25.2392Z" fill="url(#paint3_linear_58_180)"/>
<path d="M41.234 36.6481C41.2348 37.2876 41.1094 37.9209 40.865 38.5119C40.6207 39.1028 40.2621 39.6397 39.8099 40.0918C39.3576 40.5439 38.8206 40.9023 38.2296 41.1465C37.6386 41.3907 37.0052 41.5158 36.3657 41.5148C35.7259 41.5131 35.0927 41.3853 34.5024 41.1386C33.912 40.8919 33.3761 40.5312 32.9254 40.0771C32.4746 39.623 32.1179 39.0845 31.8755 38.4923C31.6332 37.9002 31.5101 37.266 31.5132 36.6262C31.5186 35.345 32.0317 34.1182 32.9402 33.2147C33.8486 32.3112 35.0783 31.8048 36.3595 31.8065C36.9983 31.8013 37.6318 31.9228 38.2234 32.1639C38.815 32.405 39.3529 32.7609 39.8061 33.211C40.2594 33.6612 40.6189 34.1968 40.864 34.7867C41.1091 35.3766 41.2348 36.0093 41.234 36.6481ZM38.8954 36.6481C38.8954 36.318 38.8301 35.9912 38.7034 35.6864C38.5766 35.3816 38.3909 35.1049 38.1568 34.8721C37.9227 34.6394 37.645 34.4552 37.3395 34.3302C37.034 34.2051 36.7068 34.1417 36.3767 34.1436C36.0458 34.1419 35.7179 34.2058 35.4119 34.3316C35.1058 34.4575 34.8278 34.6427 34.5937 34.8766C34.3597 35.1105 34.1743 35.3884 34.0483 35.6944C33.9223 36.0003 33.8582 36.3282 33.8596 36.6591C33.8594 36.9902 33.9245 37.3181 34.051 37.624C34.1776 37.93 34.3632 38.208 34.5972 38.4421C34.8313 38.6763 35.1092 38.8621 35.415 38.9889C35.7209 39.1156 36.0488 39.1809 36.3798 39.1809C36.7115 39.1809 37.0399 39.1153 37.3461 38.9879C37.6523 38.8605 37.9303 38.6738 38.1641 38.4386C38.3979 38.2033 38.5829 37.9241 38.7084 37.6171C38.8339 37.3101 38.8974 36.9813 38.8954 36.6497V36.6481Z" fill="url(#paint4_linear_58_180)"/>
<defs>
<linearGradient id="paint0_linear_58_180" x1="29.548" y1="0" x2="29.548" y2="60" gradientUnits="userSpaceOnUse">
<stop stop-color="#F01923"/>
<stop offset="1" stop-color="#FFB200"/>
</linearGradient>
<linearGradient id="paint1_linear_58_180" x1="29.548" y1="0" x2="29.548" y2="60" gradientUnits="userSpaceOnUse">
<stop stop-color="#F01923"/>
<stop offset="1" stop-color="#FFB200"/>
</linearGradient>
<linearGradient id="paint2_linear_58_180" x1="29.548" y1="0" x2="29.548" y2="60" gradientUnits="userSpaceOnUse">
<stop stop-color="#F01923"/>
<stop offset="1" stop-color="#FFB200"/>
</linearGradient>
<linearGradient id="paint3_linear_58_180" x1="29.548" y1="0" x2="29.548" y2="60" gradientUnits="userSpaceOnUse">
<stop stop-color="#F01923"/>
<stop offset="1" stop-color="#FFB200"/>
</linearGradient>
<linearGradient id="paint4_linear_58_180" x1="29.548" y1="0" x2="29.548" y2="60" gradientUnits="userSpaceOnUse">
<stop stop-color="#F01923"/>
<stop offset="1" stop-color="#FFB200"/>
</linearGradient>
</defs>
</svg>
