<svg width="60" height="60" viewBox="0 0 60 60" fill="none" xmlns="http://www.w3.org/2000/svg">
<path d="M47.3966 37.1776C47.4731 37.0049 47.5389 36.8277 47.5938 36.6469C47.6173 35.9315 47.2447 35.4588 46.6765 35.3257C46.1082 35.1926 45.6245 35.4697 45.2958 36.1475C43.2085 40.44 41.1213 44.735 39.034 49.0326C38.6615 49.8028 38.8196 50.4665 39.4739 50.7843C40.1283 51.1021 40.7576 50.8391 41.1348 50.0642C43.2221 45.7708 45.3093 41.4752 47.3966 37.1776Z" fill="url(#paint0_linear_58_191)"/>
<path fill-rule="evenodd" clip-rule="evenodd" d="M37.4795 41.1444C36.9865 41.1407 36.4991 41.0396 36.0452 40.8469C35.5913 40.6542 35.18 40.3737 34.835 40.0215C34.4899 39.6693 34.2178 39.2523 34.0344 38.7946C33.8511 38.3369 33.76 37.8475 33.7664 37.3545C33.786 36.3691 34.1897 35.4303 34.8915 34.7384C35.5934 34.0465 36.5379 33.6562 37.5234 33.6506C38.5196 33.6569 39.4724 34.0584 40.1726 34.7671C40.8727 35.4757 41.2627 36.4334 41.2569 37.4296C41.2561 37.9225 41.1575 38.4103 40.9666 38.8648C40.7757 39.3192 40.4964 39.7312 40.145 40.0768C39.7935 40.4224 39.3769 40.6948 38.9194 40.878C38.4618 41.0613 37.9724 41.1518 37.4795 41.1444ZM38.915 37.3873C38.9088 37.0139 38.7557 36.658 38.4887 36.3968C38.2217 36.1357 37.8624 35.9904 37.4889 35.9925C37.1261 36.007 36.7822 36.1585 36.5265 36.4164C36.2709 36.6744 36.1226 37.0196 36.1114 37.3826C36.1114 37.7563 36.2598 38.1147 36.524 38.3789C36.7882 38.6431 37.1466 38.7915 37.5203 38.7915C37.7041 38.7928 37.8863 38.7575 38.0563 38.6876C38.2262 38.6178 38.3806 38.5148 38.5104 38.3847C38.6403 38.2546 38.7428 38.0999 38.8123 37.9298C38.8818 37.7596 38.9167 37.5774 38.915 37.3936V37.3873Z" fill="url(#paint1_linear_58_191)"/>
<path fill-rule="evenodd" clip-rule="evenodd" d="M45.5006 47.4006C45.3126 47.8565 45.2174 48.3453 45.2206 48.8385C45.2185 49.3318 45.3139 49.8206 45.5012 50.2769C45.6885 50.7332 45.9641 51.148 46.3122 51.4975C46.6603 51.847 47.074 52.1244 47.5295 52.3136C47.985 52.5028 48.4734 52.6002 48.9666 52.6002C49.953 52.5906 50.8966 52.1959 51.5961 51.5005C52.2956 50.8051 52.6957 49.8639 52.7112 48.8776C52.7149 48.3845 52.6211 47.8954 52.4353 47.4386C52.2494 46.9817 51.9753 46.5661 51.6283 46.2155C51.2814 45.865 50.8686 45.5864 50.4137 45.3958C49.9589 45.2052 49.4708 45.1064 48.9776 45.105C48.4845 45.0987 47.9951 45.1908 47.538 45.3759C47.0808 45.5611 46.6652 45.8355 46.3154 46.1831C45.9656 46.5307 45.6886 46.9446 45.5006 47.4006ZM47.9814 49.8347C47.7171 49.5705 47.5688 49.2122 47.5688 48.8385L47.5672 48.8432C47.5632 48.6576 47.5971 48.4731 47.6668 48.3009C47.7365 48.1288 47.8405 47.9727 47.9725 47.8421C48.1045 47.7114 48.2616 47.609 48.4344 47.5411C48.6072 47.4731 48.7921 47.4411 48.9776 47.4468C49.3408 47.4511 49.6883 47.5955 49.9476 47.8498C50.2069 48.1042 50.358 48.4488 50.3693 48.8119C50.369 49.185 50.2237 49.5434 49.964 49.8113C49.7043 50.0792 49.3506 50.2356 48.9776 50.2474C48.604 50.2474 48.2456 50.099 47.9814 49.8347Z" fill="url(#paint2_linear_58_191)"/>
<path fill-rule="evenodd" clip-rule="evenodd" d="M0 11.1351V21.2118C0.605822 23.0778 2.12586 23.0793 3.76173 22.9478V51.3322C3.76173 53.8995 5.16749 55.3084 7.74888 55.3084C15.4633 55.3126 23.1777 55.31 30.8922 55.3006C31.0732 55.2924 31.2541 55.3209 31.4238 55.3844C31.5935 55.4479 31.7487 55.5451 31.88 55.67C34.5016 58.0512 37.8156 59.5321 41.3383 59.8967C41.4695 59.9219 41.5987 59.9564 41.725 60H44.4206C44.8248 59.9152 45.2319 59.8406 45.639 59.766C46.517 59.6052 47.3948 59.4444 48.2419 59.1813C55.8092 56.8363 60.7544 49.3613 59.9028 41.4825C59.2406 35.3523 56.0502 30.8908 50.6135 28.0198C50.2785 27.8414 50.136 27.6629 50.1438 27.2684C50.1629 26.2655 50.1595 25.2618 50.156 24.2304C50.1546 23.8193 50.1532 23.4038 50.1532 22.9823C50.3254 22.9823 50.4913 22.9832 50.6537 22.9841L50.6549 22.9841H50.6553C50.9706 22.9858 51.2728 22.9874 51.5825 22.9823C52.9741 22.9604 53.9134 22.0493 53.9134 20.6686C53.9228 17.6796 53.9228 14.6917 53.9134 11.7049C53.9087 10.3242 52.971 9.38494 51.5887 9.38494H44.4786C44.5499 9.2656 44.6284 9.15059 44.7134 9.04054C45.999 7.62559 46.7485 5.80498 46.8314 3.89497C46.88 3.01363 46.462 2.42816 45.7356 2.37807C45.0406 2.32954 44.549 2.83048 44.4989 3.69929C44.3956 5.55589 43.6348 7.07592 42.1507 8.21712C42.055 8.29067 41.9529 8.35579 41.8142 8.44419L41.814 8.4443C41.7372 8.49323 41.6492 8.5493 41.545 8.61787C42.4279 6.63917 42.4326 4.81387 41.4604 3.03868C40.7688 1.77343 39.6301 0.811668 38.267 0.341442C35.8672 -0.541461 32.2056 0.2303 30.7012 4.12196C28.2279 2.39529 25.7498 2.36242 23.2185 4.14075C22.4608 2.13386 21.1177 0.746888 19.0168 0.194291C17.7003 -0.16108 16.2994 -0.0258911 15.0751 0.57469C12.1884 1.94288 11.2476 4.59628 12.2902 8.55839C10.7029 7.55494 9.78549 6.19146 9.49432 4.4053C9.46387 4.21811 9.44982 4.02887 9.43575 3.83933C9.42523 3.6976 9.4147 3.5557 9.39728 3.41438C9.36925 3.12971 9.23741 2.86531 9.02695 2.67159C8.81648 2.47786 8.5421 2.36837 8.25608 2.36398C8.10831 2.3596 7.96114 2.38455 7.82306 2.43737C7.68498 2.4902 7.55874 2.56985 7.45162 2.67173C7.34449 2.77362 7.25859 2.89572 7.19892 3.03098C7.13924 3.16623 7.10694 3.31197 7.10391 3.45978C7.10872 4.1608 7.18849 4.8593 7.34185 5.54337C7.66277 6.982 8.41107 8.20616 9.48182 9.33953C9.39421 9.34511 9.31714 9.35129 9.24678 9.35693C9.1198 9.36711 9.0146 9.37555 8.90885 9.37555C8.31279 9.376 7.71659 9.37976 7.12037 9.38352C5.6654 9.3927 4.2102 9.40188 2.7567 9.36302C1.38852 9.32545 0.469629 9.83578 0 11.1351ZM23.4423 23.0245H30.4742C30.4742 23.5517 30.4743 24.0774 30.4744 24.6018L30.4744 24.6333C30.4749 27.0152 30.4754 29.3733 30.4664 31.7409C30.4466 31.9301 30.3684 32.1085 30.2425 32.2512C25.2927 38.4378 24.9122 46.0191 29.2062 52.6487C29.2392 52.7003 29.2695 52.7532 29.3083 52.8209C29.3284 52.856 29.3507 52.8951 29.3769 52.9399H23.4439V52.2981C23.4384 49.3359 23.4377 46.3733 23.4419 43.4103C23.4422 43.3976 23.4423 43.3848 23.4423 43.372V43.1473C23.4428 42.8386 23.4433 42.53 23.4439 42.2214C23.444 42.1879 23.4435 42.1547 23.4423 42.1219V23.0245ZM21.102 42.079V23.0355H6.13491C6.13195 23.0849 6.12867 23.1309 6.12558 23.1744C6.11887 23.2685 6.11301 23.3507 6.11301 23.43V51.5498C6.11301 52.547 6.54819 52.9743 7.5485 52.9759H20.6151C20.7177 52.9759 20.8142 52.9665 20.9213 52.9561L20.9215 52.9561C20.9779 52.9506 21.0373 52.9448 21.102 52.9399V46.7643C21.102 46.2421 21.1006 45.7199 21.0992 45.198C21.0964 44.1556 21.0937 43.1149 21.102 42.079ZM32.8722 32.8522C35.5976 30.1309 39.2903 28.6004 43.1417 28.5959C46.9936 28.6046 50.6851 30.1395 53.4077 32.8644C56.1303 35.5893 57.6619 39.2821 57.6673 43.1341C57.6574 46.986 56.1213 50.677 53.3956 53.3987C50.6698 56.1203 46.9764 57.6509 43.1245 57.655C39.2725 57.6459 35.5812 56.1106 32.8589 53.3854C30.1366 50.6602 28.6054 46.9672 28.6004 43.1153C28.6108 39.2639 30.1468 35.5735 32.8722 32.8522ZM21.055 11.7722V20.6122H2.37631V11.7722H21.055ZM32.8474 20.6028V11.7487H51.5324V20.6028H32.8474ZM30.432 11.7519V20.6122H23.4736V11.7519H30.432ZM47.7644 26.8724C42.3778 25.4932 37.4185 26.4215 32.8443 29.7355V23.0167H47.7644V26.8724ZM21.1002 8.11782C21.0972 8.52853 21.0942 8.94396 21.0942 9.36615V9.36302C20.6711 9.36302 20.2544 9.36981 19.8426 9.37652C18.9576 9.39093 18.0952 9.40498 17.2416 9.35049C15.3678 9.22213 13.9808 7.54399 14.0779 5.65608C14.1337 4.76082 14.5288 3.92054 15.1827 3.3065C15.8366 2.69247 16.7 2.35092 17.597 2.35146C18.5046 2.35254 19.3763 2.70578 20.0286 3.33678C20.681 3.96779 21.063 4.82732 21.0942 5.73435C21.1118 6.52082 21.1061 7.31004 21.1002 8.11751V8.11782ZM34.0634 9.37958C33.6584 9.3729 33.2493 9.36615 32.8349 9.36615L32.8286 9.36302C32.8286 8.96347 32.8235 8.57012 32.8183 8.1814C32.8066 7.28926 32.7951 6.42149 32.8474 5.55903C32.9539 3.71338 34.5804 2.30605 36.4479 2.35302C37.3339 2.38386 38.1759 2.74678 38.8066 3.36972C39.4374 3.99265 39.8108 4.83004 39.8527 5.71557C39.9201 7.57843 38.5378 9.22369 36.6859 9.35049C35.8222 9.40857 34.9526 9.39424 34.0634 9.37958ZM28.7272 5.63886C29.9999 6.37618 30.6417 7.76471 30.4226 9.35049H23.53C23.2169 8.14824 23.7523 6.70492 24.8136 5.89559C25.366 5.46731 26.0337 5.21403 26.7311 5.16828C27.4285 5.12253 28.1237 5.28641 28.7272 5.63886Z" fill="url(#paint3_linear_58_191)"/>
<defs>
<linearGradient id="paint0_linear_58_191" x1="29.9927" y1="0" x2="29.9928" y2="60" gradientUnits="userSpaceOnUse">
<stop stop-color="#F01923"/>
<stop offset="1" stop-color="#FFB200"/>
</linearGradient>
<linearGradient id="paint1_linear_58_191" x1="29.9927" y1="0" x2="29.9928" y2="60" gradientUnits="userSpaceOnUse">
<stop stop-color="#F01923"/>
<stop offset="1" stop-color="#FFB200"/>
</linearGradient>
<linearGradient id="paint2_linear_58_191" x1="29.9927" y1="0" x2="29.9928" y2="60" gradientUnits="userSpaceOnUse">
<stop stop-color="#F01923"/>
<stop offset="1" stop-color="#FFB200"/>
</linearGradient>
<linearGradient id="paint3_linear_58_191" x1="29.9927" y1="0" x2="29.9928" y2="60" gradientUnits="userSpaceOnUse">
<stop stop-color="#F01923"/>
<stop offset="1" stop-color="#FFB200"/>
</linearGradient>
</defs>
</svg>
