<svg width="61" height="60" viewBox="0 0 61 60" fill="none" xmlns="http://www.w3.org/2000/svg">
<path d="M60.3782 49.4537V50.751C59.5286 52.9082 58.7115 53.452 56.3297 53.452H51.2543C51.2543 54.5513 51.2705 55.5545 51.2543 56.5548C51.2144 58.5495 49.9866 59.9355 48.1042 59.965C45.0175 60.0153 41.9309 60.0079 38.8443 59.965C37.219 59.9399 35.9764 58.7431 35.8213 57.1385C35.74 56.28 35.7695 55.4112 35.7562 54.5468C35.7562 54.1036 35.7562 53.6603 35.7562 53.2555H28.138C28.138 54.2898 28.1557 55.2664 28.138 56.246C28.0936 58.3988 26.7328 59.9399 24.6879 59.9665C21.0708 60.0197 17.4538 60.0094 13.8367 59.9355C13.1851 59.9222 12.47 59.5661 11.9159 59.1834C10.9289 58.5023 10.5536 57.4502 10.5654 56.2564C10.5772 55.262 10.5654 54.2661 10.5654 53.2348H9.83552C7.81127 53.2348 5.78554 53.2481 3.75981 53.2348C1.77989 53.2185 0.300852 52.0025 0.0378474 50.0699C-0.0655814 49.3074 0.0673956 48.5051 0.145706 47.725C0.550556 43.7179 0.973141 39.7107 1.38833 35.7036C1.76068 32.1072 2.13155 28.5119 2.50094 24.9175C2.91465 20.9103 3.33033 16.9032 3.74798 12.8961C3.83811 12.0169 3.89575 11.1334 4.01691 10.2572C4.29764 8.07188 5.70279 6.82187 7.91026 6.78493C8.77019 6.77015 9.63012 6.78493 10.561 6.78493C10.561 6.50715 10.561 6.29586 10.561 6.08457C10.561 5.19803 10.5403 4.3115 10.5831 3.42497C10.6748 1.55143 12.0607 0.0797879 13.9401 0.0472817C17.5365 -0.0157606 21.1319 -0.0157606 24.7263 0.0472817C26.5422 0.0753552 27.8986 1.41993 28.07 3.2388C28.1601 4.19478 28.1158 5.15962 28.135 6.12594C28.135 6.3328 28.1527 6.53965 28.1631 6.78049C29.0496 6.78049 29.88 6.77311 30.703 6.78049C33.0242 6.80414 34.4456 8.11916 34.6702 10.4227C34.7781 11.5323 34.9096 12.639 35.0307 13.7575H35.7518C35.7518 12.7232 35.74 11.7214 35.7518 10.7226C35.7813 8.65403 37.058 7.26365 39.0334 7.23706C42.0211 7.19716 45.0116 7.20455 47.9992 7.23706C49.329 7.25183 50.3633 7.87093 50.9041 9.09877C51.1405 9.63661 51.1996 10.2808 51.2395 10.8718C51.2912 11.8249 51.2528 12.7838 51.2528 13.8033C52.1187 13.8033 52.9018 13.7811 53.6834 13.8033C55.3781 13.8595 56.6267 14.9854 56.838 16.6506C57.0153 18.0542 57.1527 19.4579 57.3004 20.869C57.7112 24.7786 58.1205 28.6877 58.5283 32.5963C58.9863 36.9551 59.4473 41.3129 59.9113 45.6697C60.0516 46.9301 60.223 48.1904 60.3782 49.4537ZM4.33015 30.2618C4.08044 32.7204 3.85142 35.0461 3.59137 37.3688C3.55977 37.5295 3.57038 37.6957 3.62218 37.8511C3.67397 38.0064 3.76517 38.1457 3.88688 38.2553C7.98266 42.3319 12.0637 46.4262 16.1653 50.4969C16.4017 50.7116 16.7062 50.8361 17.0253 50.8485C19.58 50.8751 22.1361 50.8648 24.6908 50.8648H34.6569C35.2199 50.8648 35.7518 50.7998 36.0104 50.3816L5.4191 19.7711C5.17826 22.0968 4.92115 24.4993 4.70248 26.893C4.68327 27.1102 4.87093 27.3998 5.0438 27.5726C9.98326 32.5313 23.3935 45.9165 28.3389 50.8692C28.5383 51.0576 28.7171 51.2666 28.8723 51.4927C29.0104 51.7149 29.0688 51.9774 29.0379 52.2372C29.007 52.4969 28.8886 52.7384 28.7023 52.922C28.5159 53.1056 28.2727 53.2203 28.0125 53.2474C27.7524 53.2744 27.4907 53.2121 27.2706 53.0708C27.0454 52.9145 26.8369 52.7352 26.6486 52.5359C22.2248 48.1165 9.34643 35.2559 4.92855 30.8365C4.76306 30.6681 4.59315 30.513 4.33015 30.2618ZM47.2294 51.0583C46.3547 50.1866 36.9176 40.6608 36.1611 39.8954C35.7758 39.5317 35.4136 39.1443 35.0766 38.7355C34.9089 38.525 34.8251 38.2598 34.8411 37.9911C34.8572 37.7225 34.9721 37.4692 35.1637 37.2802C35.3497 37.0736 35.6053 36.9427 35.8816 36.9125C36.1579 36.8822 36.4357 36.9547 36.662 37.1161C36.8557 37.2499 37.0354 37.4029 37.1983 37.5727C38.6596 39.0296 48.7809 49.2661 50.254 50.7096C50.4524 50.9084 50.7134 51.0326 50.9928 51.0613C52.9372 51.0909 54.8832 51.079 56.8291 51.0746C56.9375 51.0696 57.0453 51.0553 57.1512 51.0317L36.761 30.6415C36.7964 31.002 36.8378 31.4276 36.8821 31.8516C37.2574 35.4864 37.6859 39.1153 37.9947 42.756C38.2267 45.5101 38.8946 48.2436 38.5193 51.0539L47.2294 51.0583ZM18.7481 29.3427C18.845 29.1965 18.9522 29.0572 19.0687 28.9261C23.2783 24.7106 27.4731 20.4804 31.7196 16.3019C32.4775 15.5557 32.9016 14.8745 32.6681 13.7634C32.4362 12.6745 32.414 11.5471 32.2914 10.4271C32.2308 9.8804 31.9796 9.43714 31.4433 9.25392C30.9069 9.0707 30.4326 9.14458 29.9657 9.61444C24.9804 14.6381 19.9779 19.646 14.9582 24.6382C14.7914 24.781 14.6119 24.9081 14.4218 25.0179L18.7481 29.3427ZM33.1173 18.397L20.4813 31.036L24.6066 35.1599C24.6389 35.1447 24.6683 35.1242 24.6938 35.0993C27.6715 32.1255 30.6434 29.1472 33.6093 26.1645C33.7725 25.9586 33.8499 25.6976 33.8251 25.4361C33.6049 23.0883 33.3552 20.7449 33.1158 18.397H33.1173ZM42.9327 33.1061C42.9719 33.0878 43.0083 33.0639 43.0406 33.0351C46.9334 29.1462 50.8243 25.2553 54.7132 21.3625C54.8489 21.2073 54.9189 21.0054 54.9083 20.7995C54.7975 19.5865 54.6453 18.3793 54.5241 17.1677C54.4798 16.7244 54.3453 16.3447 53.8858 16.2088C53.4263 16.0728 53.0879 16.2088 52.7363 16.5634C48.4839 20.8424 44.2211 25.1115 39.948 29.3708C39.8121 29.5082 39.6806 29.6515 39.5816 29.755C40.7046 30.8809 41.8127 31.9876 42.9312 33.1061H42.9327ZM6.98974 9.37508C6.45487 9.68832 6.39872 10.2365 6.34258 10.7921C6.17118 12.5119 6.0116 14.2333 5.8077 15.9487C5.77614 16.1177 5.7894 16.292 5.84617 16.4543C5.90295 16.6166 6.00124 16.7612 6.13128 16.8737C8.21069 18.9353 10.2827 21.0039 12.3474 23.0794C12.4803 23.2109 12.6237 23.3335 12.699 23.4015L16.8554 19.2422L6.98974 9.37508ZM18.6136 17.3834L26.7757 9.22141H10.4428C13.2162 11.9918 15.9629 14.7371 18.6136 17.3834ZM55.2717 24.3383L44.7649 34.8422L48.1042 38.1741C50.6057 35.6622 53.1633 33.109 55.7062 30.5366C55.8334 30.3719 55.8921 30.1644 55.8702 29.9574C55.687 28.0868 55.4742 26.2133 55.2717 24.3383ZM25.6926 53.2688H12.9265C12.9265 54.2454 12.9265 55.1896 12.9265 56.1249C12.9265 57.2079 13.3344 57.6113 14.4263 57.6143C16.6918 57.6143 18.9515 57.6143 21.2053 57.6143C22.2869 57.6143 23.3669 57.6231 24.447 57.6143C25.1474 57.6054 25.6424 57.2788 25.6734 56.676C25.7414 55.5427 25.6926 54.408 25.6926 53.2688ZM25.7473 6.7406C25.7473 5.71961 25.7635 4.7592 25.7473 3.79879C25.7281 2.81326 25.2745 2.38773 24.2697 2.37886C23.4822 2.37147 22.6961 2.37886 21.9056 2.37886C19.4086 2.37886 16.9115 2.37886 14.4145 2.37886C13.5678 2.37886 13.0034 2.7187 12.9679 3.37178C12.9088 4.48142 12.9517 5.59845 12.9517 6.7406H25.7473ZM12.9679 50.8618L3.21607 41.11C3.19538 41.2696 3.16583 41.4557 3.14663 41.6434C2.89249 44.105 2.65016 46.5666 2.38125 49.0311C2.24679 50.2679 2.73438 50.8633 3.96518 50.8677C5.57571 50.8677 7.18626 50.8677 8.79679 50.8677L12.9679 50.8618ZM26.3723 36.9359L30.4947 41.1011C31.9279 39.6679 33.3907 38.2155 34.8342 36.7453C34.9421 36.6345 34.9657 36.3877 34.9495 36.2119C34.815 34.7831 34.6658 33.3573 34.5166 31.927C34.4161 30.9769 34.3082 30.0283 34.2063 29.1063L26.3723 36.9359ZM42.8662 22.8105L49.4812 16.2132H36.2793C38.5134 18.4413 40.7459 20.6813 42.8721 22.8105H42.8662ZM48.8459 13.7885C48.8459 12.6065 48.8725 11.5072 48.8341 10.4108C48.8148 9.85233 48.4661 9.59376 47.8145 9.59228C44.9432 9.58243 42.0728 9.58243 39.2034 9.59228C38.4483 9.59228 38.1499 9.91143 38.1366 10.6886C38.1203 11.5131 38.1573 12.3405 38.1218 13.165C38.1011 13.6467 38.2429 13.8033 38.7438 13.8004C41.6339 13.7767 44.524 13.7885 47.4141 13.7885H48.8459ZM38.138 53.4741C38.138 54.5262 38.1262 55.5265 38.138 56.5253C38.1499 57.3409 38.4336 57.6098 39.2551 57.6143C40.8464 57.6143 42.4392 57.6143 44.0305 57.6143C45.3086 57.6143 46.5852 57.6143 47.8633 57.6143C48.3184 57.6143 48.7705 57.4665 48.7942 56.9937C48.8547 55.8294 48.8148 54.6606 48.8148 53.4727L38.138 53.4741ZM56.244 33.5124L49.8048 39.9501L53.1618 43.2968C54.2582 42.1945 55.4047 41.0671 56.5159 39.8984C56.7147 39.6772 56.8229 39.3891 56.8188 39.0916C56.6548 37.2388 56.442 35.3859 56.244 33.5124ZM37.7302 28.0794C38.9064 26.9033 40.0249 25.7863 41.0858 24.7283L35.6188 19.2614C35.6321 19.2348 35.6026 19.2614 35.6055 19.2969C35.8439 21.6826 36.0867 24.0679 36.334 26.4526C36.3568 26.586 36.4191 26.7095 36.5127 26.8073C36.922 27.2446 37.3461 27.6775 37.7302 28.078V28.0794ZM36.0355 46.67L35.3322 39.8733L32.2855 42.917L36.0355 46.67ZM57.7644 47.8979C57.5797 46.1721 57.3935 44.4566 57.2177 42.8225L54.9334 45.0728L57.7644 47.8979Z" fill="url(#paint0_linear_51_121)"/>
<defs>
<linearGradient id="paint0_linear_51_121" x1="30.1828" y1="0" x2="30.1828" y2="60" gradientUnits="userSpaceOnUse">
<stop stop-color="#F01923"/>
<stop offset="1" stop-color="#FFB200"/>
</linearGradient>
</defs>
</svg>
