<svg width="46" height="50" viewBox="0 0 46 50" fill="none" xmlns="http://www.w3.org/2000/svg">
<path d="M4.2427 4.28421C4.2427 7.7605 4.27394 11.2323 4.2427 14.7042C4.1713 20.8401 4.46582 26.8868 7.58958 32.4337C10.8204 38.1278 15.4793 42.22 21.343 44.9822C22.0615 45.3214 23.2217 45.4954 23.8331 45.1474C30.8125 41.1936 36.993 36.4499 39.4519 28.288C41.2993 22.1208 40.8442 15.793 40.746 9.48302C40.746 8.96091 40.0141 8.22013 39.4519 7.97023C31.4952 4.46271 23.2664 3.29353 14.6939 5.13208C13.2927 5.43107 12.5251 6.00227 12.5608 7.65786C12.6679 12.2587 12.4626 16.8685 12.6322 21.4648C12.775 25.4275 13.971 29.1984 17.0233 31.858C18.7325 33.353 21.0083 34.3302 23.1816 35.1246C24.8372 35.7315 28.7552 31.7375 29.0141 29.5018C29.2729 27.2661 27.6173 25.7578 24.6453 25.6105C23.5475 25.5525 22.4408 25.6105 20.9503 25.6105L20.6647 30.5728C17.2866 31.0191 16.9608 29.8053 16.7422 26.5566C16.4253 21.9691 16.2959 17.3593 16.3495 12.7585C16.3495 9.96944 17.6481 9.01892 20.455 8.99215C24.3463 8.95645 28.2153 9.07247 31.7228 11.027C36.6628 13.776 37.0778 19.1488 32.7313 22.7545C32.2851 23.1249 31.8388 23.5265 31.4327 23.9014C34.5565 29.2118 33.5435 33.6207 28.5053 37.222C22.7041 41.3721 22.2578 41.3408 16.4566 37.1506C10.9855 33.1968 8.42406 27.7213 8.21433 21.148C8.00905 15.3468 8.01798 9.5455 8.10277 3.74424C8.10277 3.01239 9.07113 1.81644 9.78959 1.63794C21.5126 -1.27161 32.8964 -0.401424 43.7894 5.02498C44.4008 5.33289 45.1594 6.18523 45.1282 6.76982C45.0077 13.2271 45.1639 19.7111 44.4276 26.1237C43.4994 34.3615 38.3809 40.3055 31.9861 45.1295C29.6533 46.8278 27.1864 48.3337 24.6096 49.6322C23.6231 50.0731 22.5053 50.1194 21.4858 49.7616C7.94658 44.6252 0.177357 32.9513 0.0033193 17.52C-0.0234557 14.4721 0.119344 11.4242 0.159507 8.38078C0.208595 5.13208 0.677158 4.65013 4.2427 4.28421ZM20.6647 21.4202C23.8822 20.9427 26.0867 20.7776 28.6571 20.0368C29.737 19.7245 31.04 18.2518 31.1694 17.1808C31.2765 16.3151 29.9423 14.6685 28.9382 14.3918C26.64 13.7403 24.1722 13.6689 21.7625 13.468C21.5321 13.5121 21.3169 13.6144 21.1372 13.7651C20.9576 13.9159 20.8195 14.1101 20.7361 14.3293L20.6647 21.4202Z" fill="#F01923"/>
</svg>
