<svg width="172" height="40" viewBox="0 0 172 40" fill="none" xmlns="http://www.w3.org/2000/svg">
<path d="M3.39416 3.42736C3.39416 6.2084 3.41915 8.98586 3.39416 11.7633C3.33704 16.6721 3.57266 21.5094 6.07166 25.9469C8.65634 30.5023 12.3834 33.776 17.0744 35.9858C17.6492 36.2571 18.5774 36.3963 19.0665 36.1179C24.65 32.9549 29.5944 29.16 31.5615 22.6304C33.0395 17.6967 32.6753 12.6344 32.5968 7.58642C32.5968 7.16873 32.0113 6.57611 31.5615 6.37619C25.1962 3.57016 18.6131 2.63482 11.7551 4.10567C10.6341 4.34486 10.0201 4.80182 10.0486 6.12629C10.1343 9.80696 9.97011 13.4948 10.1058 17.1719C10.22 20.342 11.1768 23.3587 13.6186 25.4864C14.986 26.6824 16.8067 27.4642 18.5453 28.0997C19.8697 28.5852 23.0042 25.39 23.2112 23.6015C23.4183 21.8129 22.0938 20.6062 19.7162 20.4884C18.838 20.442 17.9526 20.4884 16.7603 20.4884L16.5318 24.4583C13.8293 24.8153 13.5687 23.8442 13.3937 21.2453C13.1403 17.5753 13.0367 13.8875 13.0796 10.2068C13.0796 7.97555 14.1185 7.21514 16.364 7.19372C19.477 7.16516 22.5722 7.25798 25.3782 8.82164C29.3302 11.0208 29.6622 15.319 26.1851 18.2036C25.8281 18.4999 25.4711 18.8212 25.1462 19.1211C27.6452 23.3694 26.8348 26.8966 22.8043 29.7776C18.1633 33.0977 17.8063 33.0727 13.1653 29.7204C8.78843 26.5574 6.73925 22.177 6.57146 16.9184C6.40724 12.2774 6.41438 7.6364 6.48221 2.99539C6.48221 2.40991 7.2569 1.45315 7.83167 1.31035C17.2101 -1.01729 26.3172 -0.321139 35.0315 4.01999C35.5206 4.26632 36.1275 4.94819 36.1025 5.41586C36.0061 10.5817 36.1311 15.7689 35.542 20.899C34.7995 27.4892 30.7047 32.2444 25.5889 36.1036C23.7227 37.4622 21.7491 38.6669 19.6877 39.7057C18.8985 40.0584 18.0043 40.0955 17.1887 39.8093C6.35726 35.7002 0.141886 26.3611 0.00265544 14.016C-0.0187646 11.5777 0.0954755 9.13937 0.127606 6.70463C0.166876 4.10566 0.541726 3.7201 3.39416 3.42736ZM16.5318 17.1362C19.1057 16.7542 20.8693 16.6221 22.9256 16.0295C23.7896 15.7796 24.832 14.6015 24.9356 13.7447C25.0212 13.0521 23.9538 11.7348 23.1506 11.5134C21.312 10.9922 19.3378 10.9351 17.41 10.7744C17.2257 10.8097 17.0535 10.8915 16.9098 11.0121C16.7661 11.1327 16.6556 11.2881 16.5889 11.4634L16.5318 17.1362Z" fill="#F01923"/>
<path d="M56.5979 29.3813H46.5698V9.59277H56.5979C59.9394 9.59277 62.4313 11.5277 62.4313 15.0049C62.4313 16.7006 61.8208 18.1608 60.6463 18.9033C62.0279 19.5388 63.3809 21.2381 63.3809 23.9692C63.388 27.8962 59.8859 29.3813 56.5979 29.3813ZM49.4329 18.5642C50.6253 17.8752 51.8998 17.7717 53.1993 17.7717H56.5979C58.3829 17.7717 59.5396 16.8684 59.5396 15.037C59.5396 13.2056 58.3222 12.4952 56.5979 12.4952H49.4329V18.5642ZM49.4329 26.4967H56.8871C58.5079 26.4967 60.5213 25.5971 60.5213 23.605C60.5213 21.2988 58.5079 20.7133 56.5943 20.7133H53.1957C51.8936 20.6622 50.5993 20.9357 49.4293 21.5094L49.4329 26.4967Z" fill="white"/>
<path d="M77.1147 21.1846H74.7942C73.4997 21.1213 72.2102 21.3866 71.0457 21.9557V29.3813H68.154V9.59277H78.5427C82.152 9.59277 84.776 11.6884 84.776 15.4297C84.776 18.425 83.0802 20.3635 80.2135 21.0775L81.7557 24.2369C83.0017 26.0648 83.4551 26.4646 84.726 26.4646H85.0187L85.6542 26.4396V29.3813C83.348 29.3813 81.0132 29.3813 79.4995 26.2504L77.1147 21.1846ZM71.0457 19.064C72.2381 18.3714 73.4876 18.2929 74.7871 18.2929H78.5427C80.5312 18.2929 81.9128 17.3932 81.9128 15.2691C81.9128 13.1449 80.442 12.4952 78.5427 12.4952H71.0457V19.064Z" fill="white"/>
<path d="M95.5431 9.24658H98.7275L108.252 29.3814H105.014L103.715 26.4897H97.6922C94.0865 26.4897 92.148 27.6321 91.6982 28.4532L91.1948 29.3814H88.0639L96.6319 11.6885L95.5431 9.24658ZM102.415 23.5623L98.092 15.2156L93.7152 24.6868C94.4292 24.0764 96.05 23.573 98.7561 23.573L102.415 23.5623Z" fill="white"/>
<path d="M119.598 29.3813H116.174L108.017 9.59277H111.144L117.909 26.1469L124.728 9.59277H127.912L119.598 29.3813Z" fill="white"/>
<path d="M140.939 29.8346C139.559 29.8511 138.189 29.5955 136.908 29.0825C135.627 28.5695 134.459 27.809 133.472 26.8446C132.485 25.8802 131.697 24.7307 131.154 23.4618C130.611 22.1929 130.324 20.8295 130.308 19.4494V19.196C130.308 13.359 135.306 9.00719 140.971 9.00719C142.351 8.98973 143.721 9.24424 145.002 9.75618C146.284 10.2681 147.452 11.0275 148.439 11.9908C149.427 12.9542 150.216 14.1027 150.76 15.3709C151.304 16.639 151.593 18.0019 151.61 19.3816V19.5137C151.603 25.3471 146.669 29.8346 140.939 29.8346ZM140.939 11.9275C136.534 11.9275 133.139 15.0833 133.139 19.5387C133.139 23.8227 136.827 26.9429 140.964 26.9429C145.209 26.9429 148.74 23.6513 148.74 19.3531C148.74 15.0548 145.159 11.9275 140.939 11.9275Z" fill="white"/>
<path d="M162.163 29.8346C160.588 29.8121 159.038 29.4356 157.629 28.733C156.219 28.0303 154.986 27.0196 154.02 25.7755L156.09 23.837C157.126 25.0865 159.061 26.9429 162.159 26.9429C165.08 26.9429 168.025 25.8291 168.025 23.3729C168.025 20.3491 165.026 20.3491 162.159 20.3491C157.44 20.3491 154.866 18.5998 154.866 15.2297C154.866 12.0167 157.915 9.02148 162.159 9.02148C165.158 9.02148 167.757 9.87115 170.12 12.1524L168.314 14.2944C166.193 12.5701 164.68 11.9596 162.159 11.9596C159.932 11.9596 158.075 13.4983 158.075 15.2226C158.075 16.415 158.925 17.5038 162.295 17.5038C169.221 17.4717 171.006 19.6351 171.006 23.3586C171.006 27.3392 167.179 29.8346 162.163 29.8346Z" fill="white"/>
</svg>
