<svg width="214" height="50" viewBox="0 0 214 50" fill="none" xmlns="http://www.w3.org/2000/svg">
<path d="M4.2427 4.28421C4.2427 7.7605 4.27394 11.2323 4.2427 14.7042C4.1713 20.8401 4.46582 26.8868 7.58958 32.4337C10.8204 38.1278 15.4793 42.22 21.343 44.9822C22.0615 45.3214 23.2217 45.4954 23.8331 45.1474C30.8125 41.1936 36.993 36.4499 39.4519 28.288C41.2993 22.1208 40.8442 15.793 40.746 9.48302C40.746 8.96091 40.0141 8.22013 39.4519 7.97023C31.4952 4.46271 23.2664 3.29353 14.6939 5.13208C13.2927 5.43107 12.5251 6.00227 12.5608 7.65786C12.6679 12.2587 12.4626 16.8685 12.6322 21.4648C12.775 25.4276 13.971 29.1984 17.0233 31.858C18.7325 33.353 21.0083 34.3302 23.1816 35.1246C24.8372 35.7315 28.7552 31.7375 29.0141 29.5018C29.2729 27.2661 27.6173 25.7578 24.6453 25.6105C23.5475 25.5525 22.4408 25.6105 20.9503 25.6105L20.6647 30.5728C17.2866 31.0191 16.9608 29.8053 16.7422 26.5566C16.4253 21.9691 16.2959 17.3593 16.3495 12.7585C16.3495 9.96944 17.6481 9.01892 20.455 8.99215C24.3463 8.95645 28.2153 9.07247 31.7228 11.027C36.6628 13.776 37.0778 19.1488 32.7313 22.7545C32.2851 23.1249 31.8388 23.5265 31.4327 23.9014C34.5565 29.2118 33.5435 33.6207 28.5053 37.222C22.7041 41.3721 22.2578 41.3408 16.4566 37.1505C10.9855 33.1968 8.42407 27.7213 8.21433 21.148C8.00905 15.3468 8.01798 9.5455 8.10276 3.74424C8.10276 3.01239 9.07113 1.81644 9.78959 1.63794C21.5126 -1.27161 32.8964 -0.401424 43.7894 5.02498C44.4008 5.33289 45.1594 6.18523 45.1282 6.76982C45.0077 13.2271 45.1639 19.7111 44.4276 26.1237C43.4994 34.3615 38.3809 40.3055 31.9861 45.1295C29.6533 46.8278 27.1864 48.3337 24.6096 49.6322C23.6231 50.0731 22.5053 50.1194 21.4858 49.7616C7.94658 44.6252 0.177357 32.9513 0.0033193 17.52C-0.0234557 14.4721 0.119344 11.4242 0.159507 8.38078C0.208595 5.13208 0.677158 4.65013 4.2427 4.28421ZM20.6647 21.4202C23.8822 20.9427 26.0867 20.7776 28.6571 20.0368C29.737 19.7245 31.04 18.2518 31.1694 17.1808C31.2765 16.3151 29.9423 14.6685 28.9382 14.3918C26.64 13.7403 24.1722 13.6689 21.7625 13.468C21.5321 13.5121 21.3169 13.6144 21.1372 13.7651C20.9576 13.9159 20.8195 14.1101 20.7361 14.3293L20.6647 21.4202Z" fill="#F01923"/>
<path d="M70.7474 36.7266H58.2122V11.991H70.7474C74.9243 11.991 78.0391 14.4096 78.0391 18.7561C78.0391 20.8758 77.276 22.701 75.8079 23.6292C77.5349 24.4235 79.2262 26.5476 79.2262 29.9615C79.2351 34.8702 74.8574 36.7266 70.7474 36.7266ZM61.7911 23.2052C63.2816 22.344 64.8747 22.2145 66.4991 22.2145H70.7474C72.9786 22.2145 74.4245 21.0855 74.4245 18.7963C74.4245 16.507 72.9028 15.619 70.7474 15.619H61.7911V23.2052ZM61.7911 33.1209H71.1089C73.1348 33.1209 75.6517 31.9964 75.6517 29.5063C75.6517 26.6235 73.1348 25.8917 70.7429 25.8917H66.4946C64.8671 25.8277 63.2491 26.1697 61.7867 26.8868L61.7911 33.1209Z" fill="black"/>
<path d="M96.3934 26.4807H93.4928C91.8746 26.4016 90.2627 26.7332 88.8072 27.4446V36.7266H85.1925V11.991H98.1784C102.69 11.991 105.97 14.6104 105.97 19.2871C105.97 23.0312 103.85 25.4543 100.267 26.3468L102.195 30.2961C103.752 32.5809 104.319 33.0807 105.907 33.0807H106.273L107.068 33.0495V36.7266C104.185 36.7266 101.266 36.7266 99.3744 32.813L96.3934 26.4807ZM88.8072 23.83C90.2976 22.9643 91.8595 22.8661 93.4839 22.8661H98.1784C100.664 22.8661 102.391 21.7415 102.391 19.0863C102.391 16.4311 100.552 15.619 98.1784 15.619H88.8072V23.83Z" fill="black"/>
<path d="M119.429 11.5581H123.409L135.315 36.7266H131.268L129.644 33.112H122.115C117.608 33.112 115.185 34.54 114.623 35.5664L113.994 36.7266H110.08L120.79 14.6104L119.429 11.5581ZM128.019 29.4527L122.615 19.0194L117.144 30.8584C118.037 30.0953 120.063 29.4661 123.445 29.4661L128.019 29.4527Z" fill="black"/>
<path d="M149.497 36.7266H145.218L135.021 11.991H138.93L147.386 32.6836L155.91 11.991H159.89L149.497 36.7266Z" fill="black"/>
<path d="M176.174 37.2934C174.449 37.314 172.737 36.9945 171.135 36.3532C169.534 35.712 168.074 34.7614 166.84 33.5559C165.606 32.3504 164.621 30.9135 163.943 29.3274C163.264 27.7413 162.905 26.037 162.885 24.3119V23.9951C162.885 16.6989 169.132 11.2591 176.214 11.2591C177.939 11.2373 179.651 11.5554 181.253 12.1953C182.855 12.8353 184.315 13.7844 185.549 14.9887C186.784 16.1929 187.77 17.6286 188.45 19.2137C189.13 20.7989 189.491 22.5024 189.512 24.2271V24.3923C189.504 31.684 183.336 37.2934 176.174 37.2934ZM176.174 14.9094C170.667 14.9094 166.423 18.8543 166.423 24.4235C166.423 29.7785 171.033 33.6787 176.205 33.6787C181.511 33.6787 185.925 29.5643 185.925 24.1914C185.925 18.8186 181.449 14.9094 176.174 14.9094Z" fill="black"/>
<path d="M202.704 37.2934C200.735 37.2653 198.798 36.7946 197.036 35.9163C195.274 35.038 193.732 33.7745 192.525 32.2195L195.113 29.7963C196.407 31.3582 198.826 33.6787 202.699 33.6787C206.35 33.6787 210.031 32.2864 210.031 29.2162C210.031 25.4365 206.283 25.4365 202.699 25.4365C196.8 25.4365 193.582 23.2499 193.582 19.0373C193.582 15.021 197.393 11.277 202.699 11.277C206.448 11.277 209.696 12.339 212.651 15.1906L210.393 17.8681C207.742 15.7127 205.85 14.9496 202.699 14.9496C199.915 14.9496 197.594 16.8729 197.594 19.0283C197.594 20.5188 198.656 21.8799 202.869 21.8799C211.526 21.8397 213.757 24.544 213.757 29.1984C213.757 34.1741 208.974 37.2934 202.704 37.2934Z" fill="black"/>
</svg>
