<svg width="129" height="40" viewBox="0 0 129 40" fill="none" xmlns="http://www.w3.org/2000/svg">
<g opacity="0.5">
<path d="M52.5588 5.89567H57.1613C58.2771 5.89567 59.2115 6.25829 59.9507 6.98353C60.6899 7.70878 61.0525 8.61533 61.0525 9.7032C61.0525 10.7911 60.6759 11.6976 59.9368 12.4229C59.1976 13.1481 58.2631 13.5247 57.1473 13.5247H53.8559V18.0296H52.5588V5.89567ZM57.1613 7.10906H53.8698V12.2973H57.1613C57.9423 12.2973 58.5699 12.0602 59.0441 11.586C59.5183 11.1118 59.7554 10.4842 59.7554 9.7032C59.7554 8.92217 59.5183 8.29455 59.0441 7.82035C58.5699 7.34615 57.9423 7.10906 57.1613 7.10906ZM65.125 16.8162H72.3217V18.0296H63.828V5.89567H72.1404V7.10906H65.125V11.0979H70.7457V12.3113H65.125V16.8162ZM74.9019 5.89567H79.7554C80.8294 5.89567 81.722 6.24434 82.4193 6.92774C83.1306 7.62509 83.4793 8.48981 83.4793 9.52189C83.4793 10.0379 83.3956 10.5121 83.2143 10.9445C83.033 11.3768 82.8238 11.7116 82.5867 11.9487C82.3496 12.1858 82.0985 12.395 81.8475 12.5623C81.5964 12.7297 81.3872 12.8413 81.2199 12.8971L80.9549 12.9807L83.814 18.0017H82.3356L79.6439 13.1481H76.185V18.0017H74.8879C74.9019 18.0296 74.9019 5.89567 74.9019 5.89567ZM79.7554 7.10906H76.2129V11.9487H79.7554C80.4946 11.9487 81.0804 11.7395 81.5267 11.2932C81.973 10.8608 82.1822 10.2611 82.1822 9.52189C82.1822 8.7827 81.9591 8.19692 81.5267 7.75062C81.0804 7.33221 80.4946 7.10906 79.7554 7.10906ZM86.6034 5.89567H94.8322V7.10906H87.9005V11.2653H93.4375V12.4786H87.9005V18.0156H86.6034V5.89567ZM98.556 16.8162H105.753V18.0296H97.2589V5.89567H105.571V7.10906H98.556V11.0979H104.177V12.3113H98.556V16.8162ZM109.379 16.3699C108.165 15.1565 107.566 13.6781 107.566 11.9487C107.566 10.2192 108.165 8.74085 109.379 7.52746C110.592 6.31408 112.071 5.71436 113.8 5.71436C114.414 5.71436 115 5.79804 115.571 5.97935C116.129 6.14671 116.603 6.35592 116.966 6.60696C117.343 6.84406 117.663 7.09511 117.942 7.34615C118.221 7.5972 118.417 7.80641 118.542 7.98772L118.737 8.25271L117.873 9.03374C117.845 8.97796 117.789 8.90822 117.719 8.81059C117.649 8.71296 117.496 8.5456 117.245 8.32244C116.994 8.08534 116.729 7.87614 116.436 7.69483C116.143 7.51352 115.767 7.34616 115.292 7.19274C114.818 7.03932 114.316 6.96958 113.8 6.96958C112.405 6.96958 111.248 7.45773 110.285 8.42007C109.337 9.38242 108.863 10.5819 108.863 11.9905C108.863 13.4131 109.337 14.6125 110.285 15.5749C111.234 16.5372 112.405 17.0254 113.8 17.0254C114.316 17.0254 114.818 16.9556 115.292 16.8162C115.767 16.6767 116.157 16.4954 116.478 16.3001C116.785 16.0909 117.064 15.8957 117.301 15.7004C117.538 15.5052 117.705 15.3238 117.803 15.1704L117.97 14.9612L118.835 15.7422C118.793 15.812 118.723 15.8957 118.626 16.0072C118.528 16.1188 118.319 16.3141 118.012 16.607C117.691 16.8999 117.357 17.1509 117.008 17.3741C116.659 17.5972 116.185 17.8064 115.613 17.9738C115.027 18.1551 114.442 18.2388 113.828 18.2388C112.071 18.183 110.592 17.5833 109.379 16.3699ZM119.853 5.89567H128.779V7.10906H124.958V18.0156H123.661V7.10906H119.839C119.853 7.10906 119.853 5.89567 119.853 5.89567ZM58.807 25.533L63.0051 20.2471H65.3063V32.381H62.7122V24.2918L58.807 29.2569L54.9158 24.3197V32.3671H52.3077V20.2332H54.6508L58.807 25.533ZM71.0107 30.0379H77.51V32.3671H68.4026V20.2332H77.3287V22.5763H71.0107V25.0031H75.9479V27.3322H71.0107C71.0107 27.3461 71.0107 30.0379 71.0107 30.0379ZM79.9228 20.2332H84.4277C86.185 20.2332 87.6773 20.819 88.8628 21.9905C90.0623 23.1621 90.662 24.5986 90.662 26.3001C90.662 28.0017 90.0623 29.4382 88.8628 30.6098C87.6634 31.7813 86.185 32.3671 84.4277 32.3671H79.9228V20.2332ZM84.4416 22.5763H82.5309V30.024H84.4416C85.4458 30.024 86.2966 29.6614 87.0079 28.9361C87.7192 28.2109 88.0679 27.3322 88.0679 26.2862C88.0679 25.2541 87.7192 24.3615 87.0358 23.6363C86.3384 22.9389 85.4737 22.5763 84.4416 22.5763ZM93.0888 32.3671V20.2332H95.6969V32.3671H93.0888ZM105.041 27.2625L103.563 23.2736L102.085 27.2625H105.041ZM105.906 29.5079H101.234L100.202 32.3671H97.4263L102.196 20.2332H104.958L109.728 32.3671H106.952L105.906 29.5079Z" fill="white"/>
<path fill-rule="evenodd" clip-rule="evenodd" d="M11.7808 6.35307L29.0453 15.8734L33.6284 18.4009L28.9211 20.9285L26.6543 22.1457L22.2637 24.4994L11.7808 30.1196L7.29703 32.5292V27.5424V17.3079V12.8428L11.7808 14.9977L18.3947 18.1774L16.7552 19.053L14.0041 20.531L11.7808 19.4691V25.139L16.2832 22.7233L17.3576 22.1457L20.1398 20.6552L21.7482 19.7858L22.4376 19.4194L24.3379 18.4009L11.7808 11.4765L7.29703 9.00484L4.49 7.45849V11.4951V15.9603V29.0515V34.0383V40H0V31.4548V13.8054V9.34019V4.98682V0H0.26083L7.29703 3.8814L11.7808 6.35307Z" fill="white"/>
<path fill-rule="evenodd" clip-rule="evenodd" d="M24.1017 13.1471L35.5099 7.45849C35.5099 20.3261 35.5099 27.1324 35.5099 40H39.9999C39.9999 27.7596 39.9999 21.5806 39.9999 9.34019V4.98061V0H39.7391L19.2205 10.4518L24.1017 13.1471Z" fill="white"/>
</g>
</svg>
