<svg width="166" height="52" viewBox="0 0 166 52" fill="none" xmlns="http://www.w3.org/2000/svg">
<path d="M74.7023 45V34.4971H75.8742V45H74.7023ZM77.0569 42.4805V41.8799H78.1556V42.5391C78.1556 43.54 78.5657 44.0405 79.386 44.0405C80.2064 44.0405 80.6165 43.54 80.6165 42.5391C80.6165 42.2266 80.5506 41.9336 80.4188 41.6602C80.2918 41.3867 80.1258 41.145 79.9207 40.9351C79.7156 40.7251 79.4861 40.52 79.2322 40.3198C78.9832 40.1147 78.7342 39.9048 78.4852 39.6899C78.2361 39.4702 78.0091 39.2407 77.804 39.0015C77.5989 38.7573 77.4305 38.4668 77.2986 38.1299C77.1717 37.7881 77.1082 37.417 77.1082 37.0166C77.1082 36.1865 77.3011 35.542 77.6868 35.083C78.0774 34.624 78.6585 34.3945 79.43 34.3945C80.2064 34.3945 80.7898 34.6265 81.1805 35.0903C81.5711 35.5542 81.7664 36.1963 81.7664 37.0166V37.3022H80.6605V36.958C80.6605 35.957 80.2601 35.4565 79.4593 35.4565C78.6585 35.4565 78.2581 35.9521 78.2581 36.9434C78.2581 37.2607 78.3216 37.5586 78.4485 37.8369C78.5804 38.1104 78.7488 38.3521 78.9539 38.562C79.1639 38.772 79.3934 38.9795 79.6424 39.1846C79.8963 39.3848 80.1478 39.5947 80.3968 39.8145C80.6507 40.0293 80.8802 40.2588 81.0853 40.5029C81.2952 40.7422 81.4637 41.0327 81.5906 41.3745C81.7225 41.7114 81.7884 42.0801 81.7884 42.4805C81.7884 43.2959 81.5882 43.938 81.1878 44.4067C80.7874 44.8706 80.1966 45.1025 79.4153 45.1025C78.6341 45.1025 78.0457 44.8706 77.6502 44.4067C77.2547 43.9429 77.0569 43.3008 77.0569 42.4805ZM82.9564 45V34.4971H84.1283V39.2285H86.7064V34.4971H87.8783V45H86.7064V40.2759H84.1283V45H82.9564ZM89.2295 45V34.4971H90.4014V43.938H93.397V45H89.2295ZM94.1329 45L96.1397 34.4971H97.839L99.8458 45H98.6813L98.2711 42.8833H95.6197L95.2096 45H94.1329ZM95.7662 41.8799H98.11L96.9234 35.8228L95.7662 41.8799ZM100.911 45V34.4971H103.262C104.063 34.4971 104.644 34.6899 105.006 35.0757C105.367 35.4565 105.548 36.04 105.548 36.8262V37.3169C105.548 37.8931 105.452 38.3521 105.262 38.6938C105.076 39.0308 104.761 39.2676 104.317 39.4043C105.255 39.668 105.723 40.4175 105.723 41.6528V42.5391C105.723 43.3398 105.526 43.9502 105.13 44.3701C104.735 44.79 104.134 45 103.328 45H100.911ZM102.083 43.938H103.328C103.758 43.938 104.073 43.8232 104.273 43.5938C104.473 43.3594 104.573 42.998 104.573 42.5098V41.5796C104.573 41.0083 104.456 40.6055 104.222 40.3711C103.992 40.1367 103.619 40.0195 103.101 40.0195H102.083V43.938ZM102.083 38.9575H102.984C103.472 38.9575 103.829 38.8574 104.053 38.6572C104.278 38.4521 104.39 38.0859 104.39 37.5586V36.9434C104.39 36.4697 104.3 36.123 104.119 35.9033C103.944 35.6787 103.648 35.5664 103.233 35.5664H102.083V38.9575ZM109.327 42.4658V37.0386C109.327 36.2183 109.522 35.5737 109.913 35.105C110.308 34.6313 110.896 34.3945 111.678 34.3945C112.464 34.3945 113.055 34.6313 113.45 35.105C113.85 35.5737 114.051 36.2183 114.051 37.0386V37.9834H112.937V36.9727C112.937 35.9619 112.527 35.4565 111.707 35.4565C111.297 35.4565 110.989 35.5884 110.784 35.8521C110.579 36.1157 110.476 36.4893 110.476 36.9727V42.5244C110.476 43.0078 110.579 43.3813 110.784 43.645C110.989 43.9087 111.297 44.0405 111.707 44.0405C112.527 44.0405 112.937 43.5352 112.937 42.5244V41.1621H114.051V42.4658C114.051 43.2861 113.85 43.9307 113.45 44.3994C113.055 44.8682 112.464 45.1025 111.678 45.1025C110.896 45.1025 110.308 44.8682 109.913 44.3994C109.522 43.9307 109.327 43.2861 109.327 42.4658ZM115.263 45V34.4971H116.435V39.2285H119.013V34.4971H120.185V45H119.013V40.2759H116.435V45H115.263ZM121.536 45V34.4971H122.708V45H121.536ZM123.971 42.4658V37.0386C123.971 36.2134 124.174 35.5664 124.579 35.0977C124.984 34.6289 125.58 34.3945 126.366 34.3945C127.157 34.3945 127.758 34.6289 128.168 35.0977C128.578 35.5664 128.783 36.2134 128.783 37.0386V42.4658C128.783 43.1396 128.649 43.6841 128.38 44.0991C128.439 44.2212 128.517 44.3066 128.614 44.3555C128.717 44.4043 128.854 44.4287 129.025 44.4287H129.171V45.4614H128.981C128.336 45.4614 127.889 45.2368 127.64 44.7876C127.289 44.9976 126.864 45.1025 126.366 45.1025C125.585 45.1025 124.989 44.8682 124.579 44.3994C124.174 43.9258 123.971 43.2812 123.971 42.4658ZM125.121 42.5244C125.121 43.0127 125.223 43.3887 125.428 43.6523C125.638 43.9111 125.951 44.0405 126.366 44.0405C127.196 44.0405 127.611 43.5352 127.611 42.5244V36.9727C127.611 36.4893 127.508 36.1157 127.303 35.8521C127.098 35.5884 126.786 35.4565 126.366 35.4565C125.951 35.4565 125.638 35.5884 125.428 35.8521C125.223 36.1157 125.121 36.4893 125.121 36.9727V42.5244ZM129.944 45L131.95 34.4971H133.65L135.657 45H134.492L134.082 42.8833H131.43L131.02 45H129.944ZM131.577 41.8799H133.921L132.734 35.8228L131.577 41.8799ZM136.722 45V34.4971H139.058C139.869 34.4971 140.462 34.6997 140.838 35.105C141.214 35.5054 141.402 36.1035 141.402 36.8994V37.7563C141.402 38.9233 140.968 39.6436 140.099 39.917C140.562 40.0537 140.897 40.3076 141.102 40.6787C141.312 41.0449 141.417 41.521 141.417 42.1069V43.7402C141.417 44.3213 141.488 44.7412 141.629 45H140.443C140.311 44.6973 140.245 44.2725 140.245 43.7256V42.0776C140.245 41.5063 140.118 41.1035 139.864 40.8691C139.61 40.6348 139.227 40.5176 138.714 40.5176H137.894V45H136.722ZM137.894 39.4482H138.758C139.256 39.4482 139.627 39.3457 139.871 39.1406C140.121 38.9307 140.245 38.5547 140.245 38.0127V37.002C140.245 36.5186 140.147 36.1597 139.952 35.9253C139.762 35.686 139.454 35.5664 139.029 35.5664H137.894V39.4482ZM142.775 45V34.4971H143.947V45H142.775ZM145.298 45V34.4971H146.47V43.938H149.466V45H145.298ZM150.202 45L152.209 34.4971H153.908L155.915 45H154.75L154.34 42.8833H151.689L151.279 45H150.202ZM151.835 41.8799H154.179L152.992 35.8228L151.835 41.8799ZM156.98 45V34.4971H159.441C160.237 34.4971 160.833 34.7266 161.228 35.1855C161.624 35.6396 161.822 36.2817 161.822 37.1118V42.4072C161.822 43.2324 161.624 43.8721 161.228 44.3262C160.833 44.7754 160.237 45 159.441 45H156.98ZM158.152 43.938H159.427C160.257 43.938 160.672 43.4424 160.672 42.4512V37.0532C160.672 36.062 160.252 35.5664 159.412 35.5664H158.152V43.938ZM163.078 45V34.4971H164.249V45H163.078Z" fill="#949699"/>
<path d="M18.552 24.264C16.888 24.264 15.424 23.904 14.16 23.184C12.912 22.448 11.936 21.432 11.232 20.136C10.544 18.824 10.2 17.288 10.2 15.528C10.2 13.768 10.544 12.24 11.232 10.944C11.936 9.632 12.912 8.616 14.16 7.896C15.408 7.176 16.872 6.816 18.552 6.816C20.232 6.816 21.696 7.176 22.944 7.896C24.208 8.616 25.184 9.632 25.872 10.944C26.576 12.24 26.928 13.76 26.928 15.504C26.928 17.264 26.576 18.8 25.872 20.112C25.184 21.424 24.208 22.448 22.944 23.184C21.696 23.904 20.232 24.264 18.552 24.264ZM18.552 21.096C19.96 21.096 21.056 20.608 21.84 19.632C22.64 18.64 23.04 17.272 23.04 15.528C23.04 13.768 22.648 12.408 21.864 11.448C21.08 10.472 19.976 9.984 18.552 9.984C17.16 9.984 16.064 10.472 15.264 11.448C14.48 12.408 14.088 13.768 14.088 15.528C14.088 17.272 14.48 18.64 15.264 19.632C16.064 20.608 17.16 21.096 18.552 21.096ZM30.4553 14.376L29.0393 13.272C29.8393 12.456 30.3273 11.672 30.5033 10.92H28.7273V7.08H32.6153V9.552C32.6153 10.464 32.4553 11.304 32.1353 12.072C31.8153 12.824 31.2553 13.592 30.4553 14.376ZM34.4096 24V21.672L40.0736 14.928H34.4096V12.216H43.9856V14.544L38.3216 21.312H44.2496V24H34.4096ZM53.0209 24.264C52.1889 24.264 51.4369 24.08 50.7649 23.712C50.1089 23.344 49.6209 22.856 49.3009 22.248V24H45.7489V7.08H49.3729V13.8C49.7249 13.24 50.2209 12.8 50.8609 12.48C51.5169 12.144 52.2369 11.976 53.0209 11.976C54.0449 11.976 54.9409 12.224 55.7089 12.72C56.4929 13.216 57.1009 13.92 57.5329 14.832C57.9649 15.744 58.1809 16.832 58.1809 18.096C58.1809 19.36 57.9649 20.456 57.5329 21.384C57.1009 22.296 56.4929 23.008 55.7089 23.52C54.9409 24.016 54.0449 24.264 53.0209 24.264ZM51.9409 21.552C52.7089 21.552 53.3329 21.272 53.8129 20.712C54.2929 20.152 54.5329 19.28 54.5329 18.096C54.5329 16.928 54.2929 16.072 53.8129 15.528C53.3329 14.968 52.7089 14.688 51.9409 14.688C51.1569 14.688 50.5249 14.968 50.0449 15.528C49.5649 16.072 49.3249 16.928 49.3249 18.096C49.3249 19.28 49.5649 20.152 50.0449 20.712C50.5249 21.272 51.1569 21.552 51.9409 21.552ZM66.0373 24.264C64.6453 24.264 63.4453 24.016 62.4373 23.52C61.4453 23.008 60.6773 22.296 60.1333 21.384C59.6053 20.456 59.3413 19.368 59.3413 18.12C59.3413 16.904 59.5973 15.84 60.1093 14.928C60.6373 14 61.3493 13.28 62.2453 12.768C63.1573 12.24 64.2053 11.976 65.3893 11.976C67.1013 11.976 68.4613 12.52 69.4693 13.608C70.4773 14.68 70.9813 16.136 70.9813 17.976V18.888H62.7973C62.9253 19.816 63.2613 20.496 63.8053 20.928C64.3653 21.344 65.1333 21.552 66.1093 21.552C66.7493 21.552 67.3973 21.456 68.0533 21.264C68.7093 21.072 69.3013 20.776 69.8293 20.376L70.7893 22.8C70.1973 23.248 69.4693 23.608 68.6053 23.88C67.7573 24.136 66.9013 24.264 66.0373 24.264ZM65.5333 14.376C64.7653 14.376 64.1413 14.608 63.6613 15.072C63.1973 15.536 62.9093 16.184 62.7973 17.016H67.9813C67.8853 15.256 67.0693 14.376 65.5333 14.376ZM72.6092 24V7.08H76.2332V17.088H76.2812L80.6252 12.216H84.9212L79.9292 17.856L85.1612 24H80.7932L76.2812 18.912H76.2332V24H72.6092ZM85.368 9.936V6.552H89.28V9.936H85.368ZM85.512 24V12.216H89.136V24H85.512ZM95.9659 24.264C94.9259 24.264 93.9579 24.144 93.0619 23.904C92.1659 23.664 91.4219 23.336 90.8299 22.92L91.6939 20.568C92.2859 20.936 92.9579 21.232 93.7099 21.456C94.4779 21.664 95.2379 21.768 95.9899 21.768C96.6619 21.768 97.1579 21.664 97.4779 21.456C97.7979 21.232 97.9579 20.944 97.9579 20.592C97.9579 20.032 97.5499 19.68 96.7339 19.536L94.2139 19.08C93.2059 18.904 92.4379 18.544 91.9099 18C91.3819 17.456 91.1179 16.744 91.1179 15.864C91.1179 15.064 91.3419 14.376 91.7899 13.8C92.2379 13.224 92.8539 12.776 93.6379 12.456C94.4219 12.136 95.3259 11.976 96.3499 11.976C97.1979 11.976 98.0219 12.088 98.8219 12.312C99.6219 12.52 100.31 12.856 100.886 13.32L99.9739 15.648C99.4939 15.296 98.9179 15.008 98.2459 14.784C97.5899 14.56 96.9739 14.448 96.3979 14.448C95.6779 14.448 95.1579 14.568 94.8379 14.808C94.5179 15.032 94.3579 15.32 94.3579 15.672C94.3579 16.232 94.7339 16.584 95.4859 16.728L98.0059 17.184C99.0459 17.36 99.8379 17.712 100.382 18.24C100.926 18.752 101.198 19.456 101.198 20.352C101.198 21.584 100.718 22.544 99.7579 23.232C98.7979 23.92 97.5339 24.264 95.9659 24.264ZM108.453 24.264C105.141 24.264 103.485 22.656 103.485 19.44V14.928H101.253V12.216H103.485V8.76H107.109V12.216H110.589V14.928H107.109V19.296C107.109 19.968 107.261 20.472 107.565 20.808C107.885 21.144 108.389 21.312 109.077 21.312C109.285 21.312 109.501 21.288 109.725 21.24C109.965 21.192 110.221 21.128 110.493 21.048L111.021 23.688C110.685 23.864 110.285 24 109.821 24.096C109.357 24.208 108.901 24.264 108.453 24.264ZM117.439 24.264C116.175 24.264 115.071 24.016 114.127 23.52C113.199 23.008 112.479 22.296 111.967 21.384C111.455 20.456 111.199 19.36 111.199 18.096C111.199 16.848 111.455 15.768 111.967 14.856C112.479 13.928 113.199 13.216 114.127 12.72C115.071 12.224 116.175 11.976 117.439 11.976C118.703 11.976 119.799 12.224 120.727 12.72C121.671 13.216 122.399 13.928 122.911 14.856C123.439 15.768 123.703 16.848 123.703 18.096C123.703 19.36 123.439 20.456 122.911 21.384C122.399 22.296 121.671 23.008 120.727 23.52C119.799 24.016 118.703 24.264 117.439 24.264ZM117.439 21.552C118.207 21.552 118.831 21.272 119.311 20.712C119.807 20.152 120.055 19.28 120.055 18.096C120.055 16.928 119.807 16.072 119.311 15.528C118.831 14.968 118.207 14.688 117.439 14.688C116.671 14.688 116.047 14.968 115.567 15.528C115.087 16.072 114.847 16.928 114.847 18.096C114.847 19.28 115.087 20.152 115.567 20.712C116.047 21.272 116.671 21.552 117.439 21.552ZM125.428 24V12.216H128.98V13.944C129.38 13.304 129.916 12.816 130.588 12.48C131.26 12.144 132.012 11.976 132.844 11.976C134.236 11.976 135.276 12.384 135.964 13.2C136.652 14 136.996 15.24 136.996 16.92V24H133.372V17.088C133.372 16.272 133.22 15.688 132.916 15.336C132.612 14.968 132.164 14.784 131.572 14.784C130.804 14.784 130.188 15.024 129.724 15.504C129.276 15.984 129.052 16.624 129.052 17.424V24H125.428ZM143.805 24.264C142.781 24.264 141.877 24.016 141.093 23.52C140.325 23.008 139.725 22.296 139.293 21.384C138.861 20.456 138.645 19.36 138.645 18.096C138.645 16.832 138.861 15.744 139.293 14.832C139.725 13.92 140.325 13.216 141.093 12.72C141.877 12.224 142.781 11.976 143.805 11.976C144.589 11.976 145.309 12.144 145.965 12.48C146.621 12.816 147.117 13.264 147.453 13.824V7.08H151.077V24H147.525V22.224C147.205 22.848 146.709 23.344 146.037 23.712C145.381 24.08 144.637 24.264 143.805 24.264ZM144.885 21.552C145.653 21.552 146.277 21.272 146.757 20.712C147.253 20.152 147.501 19.28 147.501 18.096C147.501 16.928 147.253 16.072 146.757 15.528C146.277 14.968 145.653 14.688 144.885 14.688C144.117 14.688 143.493 14.968 143.013 15.528C142.533 16.072 142.293 16.928 142.293 18.096C142.293 19.28 142.533 20.152 143.013 20.712C143.493 21.272 144.117 21.552 144.885 21.552ZM157.374 24.264C156.494 24.264 155.718 24.096 155.046 23.76C154.374 23.424 153.838 22.968 153.438 22.392C153.054 21.816 152.862 21.168 152.862 20.448C152.862 19.6 153.086 18.92 153.534 18.408C153.982 17.896 154.71 17.536 155.718 17.328C156.726 17.104 158.062 16.992 159.726 16.992H160.59V16.584C160.59 15.88 160.43 15.384 160.11 15.096C159.79 14.792 159.246 14.64 158.478 14.64C157.838 14.64 157.158 14.744 156.438 14.952C155.734 15.144 155.03 15.44 154.326 15.84L153.342 13.416C153.758 13.144 154.262 12.896 154.854 12.672C155.462 12.448 156.094 12.28 156.75 12.168C157.406 12.04 158.03 11.976 158.622 11.976C160.446 11.976 161.806 12.392 162.702 13.224C163.598 14.04 164.046 15.312 164.046 17.04V24H160.662V22.224C160.422 22.848 160.014 23.344 159.438 23.712C158.878 24.08 158.19 24.264 157.374 24.264ZM158.19 21.84C158.862 21.84 159.43 21.608 159.894 21.144C160.358 20.68 160.59 20.08 160.59 19.344V18.864H159.75C158.518 18.864 157.646 18.976 157.134 19.2C156.622 19.408 156.366 19.776 156.366 20.304C156.366 20.752 156.518 21.12 156.822 21.408C157.142 21.696 157.598 21.84 158.19 21.84Z" fill="url(#paint0_linear_109_193)"/>
<path d="M60.6733 46.2376C57.2661 44.9521 53.2877 43.2283 50.2103 41.2828C44.7203 42.7949 39.1122 43.9917 33.4252 44.238C27.7383 44.4842 21.9479 43.6913 16.7287 41.4109C11.5096 39.1305 6.41837 35.5597 3.76447 30.5212C4.1899 31.757 4.73236 32.9494 5.3844 34.0821C10.515 42.9722 21.1848 48.8578 31.0126 50.7048C34.1556 51.2955 37.3536 51.5416 40.5499 51.4386C43.2831 51.3469 46.0031 51.0173 48.6791 50.4536C52.8436 49.5765 56.8757 48.1592 60.6733 46.2376Z" fill="url(#paint1_linear_109_193)"/>
<path d="M43.7996 36.2049L42.2436 34.9342L39.3977 32.6144C38.7035 32.048 38.024 31.4619 37.3642 30.8709C36.7044 30.2799 35.9264 30.4572 35.2223 30.6936C34.3164 30.9989 33.4055 31.2748 32.4848 31.5112C31.7363 31.7082 30.9781 31.8806 30.2198 32.0332C25.9438 32.8861 21.5593 33.0523 17.2309 32.5258C14.9237 32.2916 12.6665 31.7018 10.5395 30.7773L10.0964 30.5606C8.77374 29.9114 7.57676 29.0326 6.56113 27.965C6.09159 27.4707 5.67417 26.9293 5.31543 26.3495C5.56064 27.0681 5.87561 27.7609 6.25586 28.4181C7.12874 29.9174 8.24917 31.2579 9.56957 32.3829C11.4493 33.9319 13.5547 35.1842 15.8129 36.0966C24.4541 39.7806 34.9269 39.2881 43.7996 36.2049Z" fill="url(#paint2_linear_109_193)"/>
<path d="M43.7996 36.2049L42.2436 34.9342C41.5642 35.1509 40.8847 35.3479 40.1954 35.5252C29.7035 38.2422 16.4548 37.7111 8.24996 29.5062C6.92731 28.8571 7.59648 29.0375 6.58084 27.9699C6.45325 28.1018 6.34991 28.2552 6.27557 28.4231C7.14846 29.9223 8.26886 31.2629 9.58926 32.3879C11.469 33.9368 13.5744 35.1892 15.8326 36.1015C24.4541 39.7806 34.9269 39.2881 43.7996 36.2049Z" fill="#F01923" style="mix-blend-mode:multiply"/>
<path d="M53 42.8701L50.551 41.4138C49.6818 41.6689 49.2714 41.847 48.3896 42.0557C39.7041 44.1255 31.8815 44.6763 23.1961 42.6992C19.5997 41.8759 12.621 39.7481 9.91274 36.2173C8.22083 35.4531 6.68968 34.4186 5.3905 33.1618C5.22728 33.3171 5.09509 32.9643 5 33.1618C14.7959 48.695 36.3469 50.1655 53 42.8701Z" fill="#F01923" style="mix-blend-mode:multiply"/>
<path d="M60.7472 38.3917C58.4428 36.7959 55.0257 34.9145 52.5884 33.5207C50.2792 32.1958 47.5416 34.0132 45.2028 34.7126C42.8202 35.4676 40.3992 36.0957 37.9501 36.594L37.6547 36.6531C36.6699 36.8403 35.7246 37.0077 34.7497 37.1456C31.4064 37.6399 28.0157 37.7292 24.651 37.4116C23.8337 37.3279 23.0163 37.2097 22.1891 37.0619C18.8191 36.4829 15.6004 35.2299 12.7257 33.3778C11.8304 32.7925 10.9781 32.144 10.1752 31.4373C3.10956 25.2413 -0.593117 15.583 2.75504 6.46144C-0.445404 12.3963 -0.760526 19.5133 1.30745 25.9063C2.25728 28.8704 3.72058 31.6445 5.63053 34.1018C11.6277 41.7852 21.3866 46.0849 31.1258 46.5775H31.4655C36.3526 46.7173 41.2315 46.0942 45.9266 44.7305C51.1214 43.2712 56.1036 41.1403 60.7472 38.3917Z" fill="url(#paint3_linear_109_193)"/>
<defs>
<linearGradient id="paint0_linear_109_193" x1="11.8896" y1="7" x2="34.7348" y2="70.9169" gradientUnits="userSpaceOnUse">
<stop offset="0.01" stop-color="#186BCC"/>
<stop offset="0.99" stop-color="#044DA2"/>
</linearGradient>
<linearGradient id="paint1_linear_109_193" x1="56.5" y1="47.5" x2="42.5108" y2="64.5285" gradientUnits="userSpaceOnUse">
<stop offset="0.01" stop-color="#176ACA"/>
<stop offset="0.99" stop-color="#044DA2"/>
</linearGradient>
<linearGradient id="paint2_linear_109_193" x1="38.8125" y1="32.9423" x2="32.8998" y2="42.4755" gradientUnits="userSpaceOnUse">
<stop offset="0.01" stop-color="#00CC63"/>
<stop offset="0.99" stop-color="#00A550"/>
</linearGradient>
<linearGradient id="paint3_linear_109_193" x1="3.5" y1="38" x2="51.5" y2="38" gradientUnits="userSpaceOnUse">
<stop stop-color="#D9D9D9"/>
<stop offset="1" stop-color="#EDEDED"/>
</linearGradient>
</defs>
</svg>
